<svg width="211" height="84" viewBox="0 0 211 84" fill="none" xmlns="http://www.w3.org/2000/svg">
<path d="M106.268 83.0142C98.1045 83.3022 87.6818 83.8781 77.252 83.9846C62.8803 84.1292 48.562 83.2892 34.4816 80.0076C26.5702 78.1659 18.9513 75.5529 12.2027 70.8232C5.11891 65.8683 0.674062 59.2283 0.0653801 50.354C-0.516672 41.8028 2.82017 34.8061 8.77392 28.978C15.3059 22.5796 23.2574 18.5698 31.6182 15.3012C41.9187 11.2732 52.5956 8.64379 63.4266 6.58802C79.4471 3.54724 95.6111 1.7196 111.873 0.743382C123.138 0.0694159 134.425 -0.256834 145.711 0.24027C158.102 0.786314 170.414 2.00567 182.376 5.61574C188.764 7.54374 194.868 10.1218 200.194 14.2988C213.791 24.9669 214.664 43.0454 202.203 55.0891C195.675 61.3987 187.821 65.4366 179.534 68.695C170.294 72.3298 160.746 74.9257 151.004 76.7545C143.978 78.0727 136.935 79.328 129.859 80.3251C122.775 81.3227 115.646 81.9626 106.268 83.0182L106.268 83.0142ZM108.258 78.2099C123.766 76.7339 139.172 74.7322 154.388 71.3405C164.001 69.197 173.438 66.5018 182.451 62.4601C189.076 59.4883 195.293 55.8514 200.325 50.409C208.678 41.3773 208.401 28.4589 199.597 19.8672C195.392 15.7617 190.263 13.2514 184.847 11.299C174.375 7.52904 163.471 6.06028 152.475 5.24586C139.957 4.31669 127.424 4.43721 114.911 5.20262C93.4065 6.51361 72.0138 8.75516 51.0406 14.0225C41.9379 16.3084 33.0166 19.1616 24.628 23.4848C18.509 26.6356 12.7989 30.379 8.69232 36.1503C4.81982 41.5928 3.64722 47.5785 5.3255 54.1147C6.9113 60.2972 10.9221 64.5512 16.0353 67.8742C22.4278 72.027 29.5769 74.2211 36.9151 75.8292C51.3615 78.9921 66.025 79.6026 80.7252 79.3625C89.9087 79.2107 99.0829 78.6099 108.262 78.2135L108.258 78.2099Z" fill="#D36700"/>
<path d="M84.6144 43.8733C84.6798 45.4825 84.5332 47.1134 84.2694 48.6174C83.3896 53.5947 79.9707 56.8105 74.3724 57.6849C72.3409 58.0021 70.1671 57.9375 68.1354 57.58C63.4294 56.7496 60.7628 53.6331 59.6 49.0303C58.9018 46.2726 58.7925 43.5062 59.3717 40.7389C60.1504 37.0312 62.28 34.4003 65.7736 33.0018C68.5659 31.8824 71.4991 31.5586 74.4632 31.9472C76.9354 32.2722 79.2975 33.3253 81.0647 35.1306C82.3309 36.4273 83.3163 38.0606 83.9015 39.7834C84.3398 41.0684 84.558 42.4682 84.6148 43.8773L84.6144 43.8733ZM76.8076 44.5012C76.7217 43.2672 76.4751 42.0506 76.0479 40.8529C75.1953 38.4776 73.3769 37.3955 71.0028 37.6849C68.6953 37.9648 67.0463 39.3709 66.938 41.8019C66.8346 44.1481 67.0495 46.5643 67.5317 48.8619C67.9939 51.0608 69.9289 52.1654 72.1586 52.0446C74.55 51.9184 76.1578 50.6362 76.5792 48.3078C76.8103 47.0314 76.8918 45.7634 76.804 44.5055L76.8076 44.5012Z" fill="#D36700"/>
<path d="M96.9696 55.7975C96.4757 55.8063 95.9847 55.8029 95.5003 55.7829C93.9796 55.7203 92.4098 55.3967 90.8975 55.1969C89.6333 55.0287 89.2282 54.2912 89.6389 53.0802C89.725 52.8281 89.8071 52.5762 89.8771 52.3214C90.6884 49.4425 90.6832 49.475 93.4614 49.9594C94.6817 50.1714 95.9267 50.297 97.1676 50.3266C97.7981 50.3425 98.536 50.221 99.034 49.8784C99.5658 49.513 100.192 48.8023 100.182 48.2528C100.171 47.7396 99.4733 47.0464 98.9174 46.7833C98.0442 46.3658 97.0367 46.2405 96.0865 45.994C95.3262 45.7961 94.5601 45.6227 93.8028 45.4124C89.7446 44.2792 87.7299 41.9682 87.6895 38.4048C87.6451 34.5526 89.9957 31.3852 93.6838 30.2356C97.2488 29.1284 100.812 29.4913 104.38 30.1953C106.588 30.6306 105.48 32.6867 105.036 34.0691C104.906 34.4654 104.778 34.9781 104.462 35.2735C103.797 35.895 102.533 35.4818 101.755 35.3616C100.34 35.1456 98.8882 35.0493 97.4616 35.1195C96.3936 35.172 95.4036 35.6438 95.335 37.0191C95.2689 38.33 96.0103 38.9714 97.1413 39.251C98.0299 39.4705 98.9388 39.5999 99.8274 39.8193C100.971 40.102 102.131 40.3551 103.23 40.774C105.819 41.752 107.611 43.5232 107.843 46.436C108.081 49.4167 107.097 51.9244 104.578 53.6758C102.396 55.1944 99.6234 55.7339 96.9653 55.7938L96.9696 55.7975Z" fill="#D36700"/>
<path d="M42.038 47.3389C42.4899 53.4468 45.4523 55.4461 51.1643 53.5502C51.2258 53.529 51.2867 53.4998 51.3483 53.4787C54.3742 52.4563 55.7504 53.2619 56.3203 56.4801C56.3889 56.8801 56.1343 57.6322 55.8327 57.7657C50.4903 60.113 45.0519 61.199 39.5648 58.2845C36.4407 56.6279 35.282 53.563 34.5932 50.2945C33.9641 47.3182 33.9874 44.336 34.8629 41.4196C36.2904 36.6539 39.9992 34.7957 44.4224 33.9706C47.4387 33.407 50.4297 33.8335 53.3992 34.4305C53.709 34.4932 54.126 34.6072 54.2639 34.8408C55.1595 36.3449 54.0097 37.6132 53.7186 38.9789C53.5021 40.001 52.6994 40.0556 51.8606 39.9605C50.4348 39.8017 49.0051 39.4987 47.5778 39.5127C43.8494 39.549 41.9491 41.5544 41.89 45.3509C41.8814 46.0144 41.9913 46.676 42.0459 47.3383L42.038 47.3389Z" fill="#D36700"/>
<path d="M156.528 25.2401C157.432 25.0647 158.335 24.9295 159.078 25.157C160.588 25.6221 161.445 27.1897 161.972 28.5879C162.413 29.7563 163.126 30.8218 163.769 31.9011C163.938 32.1842 164.193 32.633 164.515 32.7469C164.654 32.7956 164.816 32.7942 164.94 32.7156C165 32.6785 165.051 32.6221 165.097 32.562C165.254 32.3522 165.281 32.1009 165.376 31.8601C166.12 29.9466 166.885 28.0435 167.548 26.1007C167.97 24.8728 168.675 24.26 169.983 24.2358C171.357 24.2061 172.728 23.9879 174.1 23.9262C175.689 23.8586 176.06 24.3218 175.446 25.8067C174.205 28.8016 173.019 31.8442 171.501 34.6934C169.654 38.1604 169.008 41.6522 169.585 45.5807C170.135 49.3307 170.34 49.129 166.489 49.4487C161.836 49.8349 162.377 50.0591 162.245 45.7281C162.134 42.022 161.058 38.9623 158.652 36.1696C156.499 33.6733 154.638 30.9158 152.714 28.2236C152.214 27.5261 151.398 26.5094 152.353 25.8999C152.83 25.5952 153.691 25.568 154.233 25.5712C154.926 25.5739 155.729 25.3867 156.532 25.2318L156.528 25.2401Z" fill="#D36700"/>
<path d="M119.781 28.4233C122.528 28.1953 125.278 28.0032 128.021 27.7233C129.198 27.6015 129.747 28.07 129.838 29.2153C129.843 29.2831 129.849 29.3469 129.854 29.4148C130.332 32.8133 130.133 33.0387 126.796 33.3558C123.199 33.6945 123.605 33.0463 123.906 36.9375C124.256 41.5195 124.668 46.0923 125.026 50.6736C125.187 52.7208 125.063 52.8515 123.121 53.0529C122.01 53.1691 120.899 53.2654 119.784 53.3298C117.953 53.4376 117.742 53.2824 117.58 51.4121C117.141 46.3716 116.745 41.3275 116.322 36.2857C116.154 34.2472 116.146 34.2478 114.145 34.4019C113.881 34.4237 113.622 34.4453 113.359 34.4671C109.809 34.7537 109.732 34.6356 109.54 31.0607C109.462 29.6253 110.051 29.1947 111.334 29.1123C114.149 28.935 116.96 28.6615 119.774 28.4279L119.781 28.4233Z" fill="#D36700"/>
<path d="M134.854 39.3863C134.581 36.0672 134.272 32.747 134.045 29.424C133.906 27.351 134.033 27.2601 135.993 27.0774C137.234 26.9623 138.484 26.9148 139.721 26.7558C140.822 26.6163 141.315 27.1256 141.431 28.1563C141.5 28.753 141.554 29.3511 141.603 29.9455C141.98 34.5292 142.385 39.1066 142.724 43.6936C142.814 44.9352 143.185 45.4547 144.528 45.2749C146.739 44.9789 148.978 44.9177 151.198 44.6772C152.414 44.5481 153.046 44.9174 153.146 46.2306C153.532 51.2956 153.881 50.4432 149.574 50.8529C145.714 51.2214 141.853 51.5218 137.988 51.8146C136.124 51.9572 135.92 51.8296 135.733 49.9452C135.38 46.4319 135.133 42.9098 134.843 39.3872C134.843 39.3872 134.851 39.3866 134.854 39.3863Z" fill="#D36700"/>
</svg>
