<svg width="388" height="286" viewBox="0 0 388 286" fill="none" xmlns="http://www.w3.org/2000/svg">
<path fill-rule="evenodd" clip-rule="evenodd" d="M223.135 113.019C223.089 112.871 223.043 112.724 222.996 112.548C221.816 108.565 219.216 97.9503 214.948 97.3693C214.099 101.123 215.879 105.106 216.082 108.869C216.275 112.548 216.266 116.237 216.054 119.917C215.418 131.343 212.919 142.639 208.982 153.374C204.769 164.855 198.896 175.7 191.788 185.632C191.732 185.715 191.668 185.788 191.612 185.862C183.914 196.56 174.842 206.187 164.645 214.459C137.566 236.444 99.0002 248.875 64.3432 241.848C63.9467 241.765 63.5595 241.682 63.1722 241.599C57.0411 240.28 51.0299 238.353 45.286 235.835C42.4739 234.6 39.7172 233.226 37.0435 231.713C35.0152 230.57 32.0556 227.637 29.5755 228.006C29.2436 233.714 38.8045 241.138 42.6491 244.559C48.0795 249.401 54.2568 253.375 60.8304 256.492C74.1161 262.782 88.9875 265.631 103.656 265.299C107.575 265.207 111.484 264.894 115.356 264.331C120.657 263.566 125.968 262.385 131.223 260.818C147.136 256.114 164.387 248.054 177.783 237.182C187.768 229.076 196.6 219.633 203.976 209.36C223.577 182.054 233.452 145.941 223.153 113L223.135 113.019Z" fill="#FAFBFB"/>
<path fill-rule="evenodd" clip-rule="evenodd" d="M98.8989 237.567C104.2 236.801 109.511 235.612 114.766 234.053C130.679 229.35 147.929 221.29 161.326 210.417C171.311 202.311 180.143 192.868 187.51 182.595C209.296 152.191 216.709 116.069 206.447 85.8025C196.37 56.0343 169.66 35.8292 136.101 32.5924C106.118 29.6783 72.6318 41.7036 47.0378 63.0153C17.5992 87.4993 -0.434585 123.492 0.00796214 157.097C0.220016 173.097 4.3689 188.322 12.095 201.196C28.3587 228.28 63.1816 242.74 98.8897 237.557L98.8989 237.567ZM116.075 119.038C116.462 118.54 116.804 118.116 116.979 117.821C117.366 117.194 117.809 116.391 118.297 115.497C120.132 112.149 122.658 107.557 125.489 106.423C126.484 106.026 127.517 105.961 128.522 105.888H128.568C142.056 105.049 155.453 103.767 169.015 102.217C170.112 102.088 171.301 101.978 172.168 102.476C175.838 104.578 163.142 120.44 161.621 120.154C161.621 120.154 160.496 120.108 150.723 120.79C146.27 121.261 141.808 121.722 137.354 122.164C134.967 122.395 132.514 122.708 130.034 123.022C125.083 123.64 120.067 124.276 115.384 124.331C111.889 124.378 114.462 121.095 116.075 119.038ZM72.9914 167.794C71.5808 168.043 70.29 168.264 69.2574 168.366C61.7618 169.094 54.2569 169.814 46.7613 170.524H46.7428C46.1896 170.57 45.6088 170.625 45.1662 170.376C43.0918 169.187 53.5746 154.404 57.032 149.516C57.4285 148.963 57.7328 148.53 57.9171 148.262C58.1937 147.866 58.4611 147.534 58.8022 147.358C59.8164 146.824 61.1809 146.86 62.4072 146.897C62.9419 146.916 63.449 146.925 63.8915 146.897C72.8531 146.196 72.6318 145.8 69.9673 141.604C69.239 140.46 68.5106 139.308 67.7823 138.164C60.2958 126.379 52.8094 114.593 45.5996 102.614C45.0187 101.655 44.4287 100.631 44.4655 99.4232C44.5393 97.0716 46.4109 94.6278 48.0612 92.4699C48.4854 91.9166 48.9002 91.3725 49.2598 90.8653C50.9286 88.4953 52.4222 86.0423 53.9066 83.58C55.4647 80.9979 57.032 78.4158 58.8022 75.9443C60.2313 77.3184 61.2455 79.0521 62.2412 80.7674L62.3334 80.9241C66.722 88.4953 71.2028 96.0019 75.7942 103.435C78.0899 107.151 80.4133 110.858 82.7551 114.538C85.226 118.42 87.5586 122.395 89.9004 126.369C90.804 127.91 91.6983 129.431 92.6018 130.962C93.2472 132.041 93.8188 133.314 94.4181 134.623C95.8379 137.758 97.3592 141.115 100.162 142.664C102.67 144.048 107.427 143.282 111.41 142.637C112.839 142.406 114.167 142.194 115.245 142.102C118.242 141.844 121.248 141.595 124.244 141.337L124.816 141.29C127.711 141.041 130.606 140.802 133.501 140.553C136.285 140.313 139.06 140.082 141.844 139.852H141.891C152.419 138.967 162.948 138.072 173.487 137.122C175.303 136.947 177.128 136.79 178.926 136.67C179.811 136.624 180.789 136.55 181.683 136.44C182.586 136.338 183.472 136.274 184.338 136.265C185.094 136.135 185.924 136.043 186.496 136.145C186.615 136.163 186.698 136.2 186.772 136.228C186.791 136.228 186.809 136.246 186.828 136.246C186.828 136.265 186.837 136.265 186.855 136.274C186.864 136.274 186.883 136.274 186.901 136.292V136.311L186.92 136.329V136.348L186.947 136.366C186.966 136.394 186.975 136.412 186.984 136.44C187.076 136.661 187.076 136.993 187.04 137.325C186.754 139.64 185.269 141.964 183.877 144.149C183.481 144.776 183.084 145.394 182.734 145.994C181.978 147.091 181.268 148.511 180.521 149.996C178.899 153.251 177.119 156.829 174.233 158.157C169.485 160.26 163.944 160.592 158.735 160.905C157.048 161.007 155.397 161.108 153.821 161.265C150.824 161.56 147.837 161.883 144.841 162.196C141.199 162.584 137.557 162.962 133.915 163.312C130.504 163.644 127.084 163.939 123.682 164.179C121.192 164.354 115.78 163.561 113.964 165.249C112.913 166.226 117.071 170.017 118.067 171.243C119.099 172.506 120.215 173.871 119.929 175.587C119.542 177.901 117.661 180.382 115.928 182.65C115.236 183.554 114.582 184.421 114.047 185.233C112.738 187.234 111.419 189.226 110.101 191.227L110.046 191.31C108.709 193.339 107.381 195.358 106.053 197.387C105.002 198.982 99.7471 190.443 98.0322 187.649C97.9124 187.455 97.811 187.289 97.728 187.151C97.6634 187.049 97.6173 186.966 97.5805 186.911C96.5755 185.352 95.5337 183.803 94.5011 182.254C91.6614 178.012 89.126 173.631 86.5352 169.233C84.6452 165.784 82.9026 166.088 73.0099 167.803L72.9914 167.794Z" fill="#FAFBFB"/>
<path d="M244.271 78.6486C244.283 78.2355 244.306 77.8165 244.33 77.4035C245.652 56.3185 261.621 37.3226 277.892 25.6324C279.419 24.5348 280.968 23.4844 282.553 22.4753C298.329 12.4256 318.096 5.56248 336.786 9.96476C337.269 10.0769 337.77 10.2008 338.265 10.1182C341.429 9.55758 336.815 6.48306 336.052 5.98736C332.789 3.86294 329.177 2.1811 325.39 1.27232C309.439 -2.55165 288.367 2.39355 270.674 14.0956C254.123 25.0482 239.255 42.4803 235.812 62.7154C234.897 68.0796 235.276 73.6503 236.913 78.8316C237.74 81.4635 238.894 83.9833 240.345 86.3201C240.945 87.282 243.729 92.18 245.087 91.8791C245.442 91.8023 245.53 91.3302 245.518 90.9585C245.384 86.8099 244.12 82.8798 244.265 78.6427L244.271 78.6486Z" fill="#FAFBFB"/>
<path d="M311.472 65.3591C310.08 65.0287 302.244 63.4531 301.085 65.4831C300.566 66.3801 300.223 67.2947 299.873 68.2035C299.605 68.9117 299.331 69.6198 298.988 70.322C298.696 70.9122 298.318 71.5731 297.916 72.2694C296.82 74.1814 295.579 76.3412 295.626 77.8933C295.626 77.9523 295.649 77.9759 295.684 77.9405L295.708 77.9523C295.62 78.029 295.515 78.1293 295.527 78.1706C295.55 78.4126 295.673 78.6545 295.912 78.7607C296.756 79.1325 298.533 78.9555 299.995 78.8079C300.514 78.7548 300.997 78.7076 301.382 78.6899C303.631 78.5896 305.932 78.3595 308.256 78.0054C311.839 77.4507 315.912 74.7833 316.663 71.3725C317.45 67.7786 314.636 66.0909 311.478 65.3473L311.472 65.3591Z" fill="#FAFBFB"/>
<path d="M318.679 47.331C317.106 46.853 312.632 45.5135 310.558 46.9888C309.305 47.8799 308.49 49.8567 307.837 51.4324C307.616 51.9694 307.412 52.4592 307.219 52.8486L306.992 53.303C306.882 53.5273 306.771 53.7456 306.66 53.964C306.346 54.5895 306.031 55.1973 305.763 55.811C305.478 56.4484 305.239 57.0916 305.07 57.7466C305.041 57.8646 305.064 57.9886 305.099 58.0948C305.99 60.6972 311.094 59.694 314.065 58.8561C318.032 57.7289 322.646 55.5101 322.786 51.4501C322.868 49.1427 320.77 47.9684 318.696 47.331H318.679Z" fill="#FAFBFB"/>
<path d="M358.429 28.0342C354.193 20.8111 346.905 15.6771 337.59 13.4465C321.638 9.62249 300.566 14.5677 282.867 26.2697C263.526 39.0635 250.132 58.6023 247.778 76.4593C247.726 76.8842 247.674 77.3031 247.633 77.728C246.089 94.2926 255.812 107.482 271.577 111.996C277.146 113.595 283.485 114.068 290.144 113.448C310.179 111.589 332.69 99.3854 346.882 82.5021C354.112 73.8982 358.976 64.7395 361.254 55.935C363.899 45.7082 363.066 35.9477 358.434 28.0401L358.429 28.0342ZM328.694 59.2573C328.612 59.3045 328.536 59.3517 328.455 59.399C327.907 59.7235 327.359 60.054 326.917 60.4848C325.664 61.724 326.602 62.4676 327.336 63.0518L327.389 63.0931L327.429 63.1285C330.167 65.3237 330.517 69.4369 328.548 73.4556C325.414 79.8643 317.584 84.8212 310.668 85.5825C309.894 85.6651 309.154 85.7064 308.443 85.7477C305.355 85.913 302.873 86.0487 300.887 89.6897C300.764 89.9199 300.59 90.3448 300.38 90.87C299.646 92.6934 298.44 95.7089 297.036 95.7266C296.494 95.7325 295.952 95.7384 295.416 95.7443C294.875 95.7443 294.333 95.7561 293.791 95.762C293.424 95.7679 293.028 95.762 292.795 95.5791C292.224 95.1247 293.465 92.8823 294.682 90.6693C295.655 88.899 297.24 86.8454 296.634 86.3733C295.37 85.4055 291.874 85.6946 290.668 86.5916C290.179 86.8454 289.818 88.4564 289.474 89.7428C288.915 91.826 288.297 94.1333 286.631 94.8179C286.34 94.9418 286.06 94.93 285.792 94.9182C285.314 94.9005 284.831 94.8828 284.353 94.871C283.875 94.8533 283.398 94.8356 282.914 94.8179C282.512 94.8061 282.104 94.7884 281.813 94.6172C280.566 93.8973 282.168 91.3185 283.602 89.017C284.452 87.6479 285.244 86.3792 285.338 85.6533C285.373 85.3996 285.314 85.1281 285.18 84.9393C284.708 84.2075 283.176 84.237 281.889 84.2606C281.446 84.2665 281.038 84.2783 280.706 84.2547C280.374 84.2311 279.949 84.2252 279.465 84.2193C277.613 84.1898 275.02 84.1544 274.641 83.0745C274.315 82.148 275.23 80.8202 276.063 79.6105C276.453 79.0499 276.82 78.5129 277.036 78.0526C277.834 76.3826 279.588 76.7838 280.992 77.1084C281.545 77.2382 282.046 77.3503 282.413 77.3208C284.068 77.1792 285.04 75.9341 285.955 74.5886C287.388 72.476 288.256 70.3102 289.13 68.1445C289.596 66.982 290.062 65.8194 290.616 64.6687C291.997 61.7889 293.377 58.9151 294.758 56.0353C295.97 53.5037 297.182 50.978 298.393 48.4523C298.749 47.7087 299.116 46.9239 299.087 46.2393C299.028 44.7699 296.937 44.888 295.282 44.9824C294.88 45.006 294.508 45.0237 294.193 45.0237C290.394 44.9765 294.106 38.3967 295.888 38.6622C298.399 39.0399 300.98 39.27 303.637 39.3645C304.854 39.4117 305.815 39.0989 306.619 38.556C308.041 37.5882 308.956 35.9005 309.882 34.1832C309.981 34.0003 310.08 33.8173 310.179 33.6344C311.694 30.8726 312.917 29.3974 316.209 29.8812C317.898 30.1232 317.595 31.1028 316.809 32.7669C316.652 33.1033 316.308 33.6344 315.912 34.2599C314.566 36.3726 312.544 39.5474 314.461 39.8483C318.376 40.4562 319.961 38.9042 321.207 35.3398C321.283 35.1274 321.359 34.8796 321.44 34.6081C321.982 32.8495 322.821 30.1232 325.14 30.371L327.47 30.6189C330.208 30.9081 328.711 33.2626 327.196 35.6526C326.095 37.3876 324.988 39.1402 325.472 40.1316C325.769 40.7276 326.579 40.8751 327.348 41.0227C327.412 41.0345 327.47 41.0463 327.528 41.0581C331.362 41.7839 334.269 44.1267 335.283 47.4137C336.506 51.3852 333.739 56.1946 328.699 59.2514L328.694 59.2573Z" fill="#FAFBFB"/>
<path d="M387.562 198.461V198.514C387.562 198.514 387.602 198.487 387.615 198.487C387.602 198.474 387.575 198.461 387.562 198.461Z" fill="#FAFBFB"/>
<path d="M255.202 259.981C241.599 239.647 236.092 216.462 239.702 194.723C242.727 176.443 251.791 159.343 265.194 146.578C267.968 143.94 270.927 141.501 274.046 139.287C275.572 138.2 277.151 137.179 278.757 136.212C279.434 135.801 280.309 135.482 280.933 135.032C280.933 135.032 282.512 133.746 281.862 133.68C279.792 133.481 276.673 135.482 274.829 136.357C272.639 137.391 270.516 138.545 268.446 139.791C264.332 142.283 260.47 145.199 256.914 148.46C247.783 156.838 240.843 167.455 236.424 179.015C232.005 190.574 230.08 203.22 230.93 215.627C231.779 228.034 235.508 240.508 242.064 251.272C249.217 263.003 259.846 272.534 272.108 278.685C273.435 279.348 274.789 279.957 276.169 280.527C276.872 280.819 279.049 281.402 277.509 280.037C275.731 278.473 273.183 277.545 271.193 276.153C269.056 274.655 267.012 273.038 265.062 271.288C261.319 267.934 257.988 264.143 255.188 259.981H255.202Z" fill="#FAFBFB"/>
<path d="M387.549 198.487V198.421C387.31 196.115 386.991 193.821 386.567 191.541C380.104 156.612 349.834 130.631 315.835 129.809C279.739 128.947 249.363 159.462 243.404 195.332C239.728 217.496 246.164 239.7 258.32 257.887C267.052 270.944 281.013 279.414 295.597 283.364C303.095 285.392 310.898 286.28 318.622 285.923C324.394 285.657 333.126 285.207 338.182 281.999L339.748 281.376C356.151 274.92 369.766 262.049 378.352 246.208C386.208 231.693 389.208 214.805 387.562 198.461L387.549 198.487ZM287.887 204.664C288.272 203.949 288.63 203.259 288.922 202.61C289.533 201.245 290.01 199.826 290.488 198.408C290.873 197.268 291.271 196.115 291.722 195.001C292.598 192.854 293.527 190.746 294.443 188.651C294.854 187.71 295.265 186.782 295.677 185.841C296.287 184.423 296.792 183.044 297.283 181.666C297.853 180.075 298.424 178.511 299.14 176.973C299.777 175.608 300.521 174.295 301.264 172.983C301.874 171.909 302.485 170.822 303.029 169.709C303.732 168.304 304.303 166.753 304.887 165.189C305.311 164.035 305.749 162.869 306.24 161.755C306.983 160.045 307.753 158.349 308.536 156.652C308.735 156.228 308.934 155.804 309.133 155.393C309.332 154.968 309.531 154.558 309.73 154.133C309.783 154.027 309.929 153.789 310.102 153.524C312.663 149.587 314.946 153.205 316.936 156.533C318.542 159.197 320.387 161.583 322.258 164.022C322.603 164.473 322.961 164.937 323.306 165.388C323.917 166.183 324.514 166.965 325.124 167.76H325.137V167.787C325.735 168.569 326.332 169.338 326.929 170.12C327.632 171.048 328.349 171.962 329.052 172.89C332.834 177.795 336.643 182.726 339.947 187.975C340.292 188.532 340.637 189.089 340.982 189.646C342.203 191.634 343.424 193.636 344.911 195.425C345.415 196.035 345.932 196.605 346.463 197.188C346.848 197.612 347.233 198.037 347.618 198.474C347.777 198.66 347.976 198.858 348.175 199.071C348.905 199.826 349.768 200.714 349.728 201.735C349.622 204.651 346.078 207.09 343.623 208.787C343.225 209.065 342.867 209.317 342.548 209.543C339.801 211.544 337.2 213.745 334.586 215.932C332.702 217.523 330.817 219.113 328.88 220.624C328.588 220.85 328.296 221.075 328.004 221.314C325.496 223.289 323.027 225.238 319.975 226.324C319.245 226.576 318.555 226.51 317.839 226.232C313.048 224.296 308.324 222.175 303.599 220.041C303.599 220.041 303.533 220.015 303.506 220.001C302.816 219.697 302.14 219.392 301.449 219.074C298.702 217.841 295.942 216.608 293.182 215.415C291.789 214.818 290.408 214.235 289.015 213.665C288.842 213.599 288.683 213.533 288.511 213.466C287.529 213.095 286.6 212.724 286.082 211.677C285.87 211.253 285.79 210.762 285.803 210.298C285.843 208.389 286.892 206.441 287.847 204.625L287.887 204.664ZM351.28 211.849C349.86 214.924 348.494 218.066 347.485 221.327C345.282 228.419 339.244 235.259 336.178 242.218L335.754 243.186C333.166 248.289 331.229 252.028 329.795 254.798C328.694 256.919 327.884 258.483 327.301 259.676C326.942 260.392 326.571 261.108 326.226 261.837C325.137 264.037 323.293 265.522 321.501 263.335C317.414 258.443 313.34 253.552 309.266 248.661C305.855 244.578 302.551 240.402 299.26 236.213C299.087 235.975 298.902 235.749 298.729 235.524C298.211 234.861 297.694 234.212 297.176 233.549C297.057 233.39 296.937 233.244 296.818 233.085C296.725 232.979 296.646 232.86 296.553 232.754C295.61 231.547 294.708 230.328 293.699 229.174C292.956 228.313 292.266 227.398 291.576 226.497L291.443 226.311C290.581 225.171 289.692 224.031 288.75 222.958C288.046 222.162 287.356 221.354 286.786 220.439C285.1 217.735 285.392 216.038 288.471 217.271C288.736 217.377 288.975 217.47 289.161 217.536C290.475 217.973 291.802 218.424 293.102 218.928C296.951 220.386 300.68 222.162 304.396 223.938C306.293 224.84 308.191 225.741 310.089 226.603C311.681 227.345 313.274 228.061 314.893 228.737C315.702 229.082 316.512 229.4 317.334 229.705C319.564 230.54 320.984 229.996 323.08 228.936C324.554 228.207 325.92 227.266 327.221 226.258C328.84 224.999 330.366 223.634 331.905 222.268C333.153 221.155 334.414 220.041 335.714 218.981C337.094 217.854 338.488 216.754 339.894 215.654C342.349 213.731 344.804 211.796 347.153 209.741C348.241 208.787 349.237 207.594 350.803 207.753C352.806 207.992 351.824 210.749 351.294 211.902L351.28 211.849Z" fill="#FAFBFB"/>
<path d="M388 129.809C388 129.809 387.96 129.796 387.947 129.796V129.849C387.947 129.849 387.987 129.822 388 129.809Z" fill="#FAFBFB"/>
</svg>
