<svg width="488" height="488" viewBox="0 0 488 488" fill="none" xmlns="http://www.w3.org/2000/svg">
<path fill-rule="evenodd" clip-rule="evenodd" d="M206.459 67.6971L207.084 63.1071L221.43 60.9403L223.433 65.1634C224.033 66.4271 224.333 67.059 224.903 67.3627C225.474 67.6663 226.165 67.5619 227.549 67.353L231.537 66.7506C233.943 66.3872 235.146 66.2055 235.606 65.3297C236.066 64.4538 235.533 63.3602 234.467 61.1731L218.902 29.2431C218.296 27.9988 217.992 27.3766 217.425 27.0787C216.858 26.7808 216.174 26.8841 214.805 27.0908L204.87 28.5913C203.543 28.7918 202.88 28.892 202.431 29.3254C201.982 29.7588 201.859 30.4185 201.612 31.7378L195.016 67.0148C194.556 69.4771 194.326 70.7083 195.026 71.4337C195.727 72.1592 196.965 71.9721 199.442 71.598L203.17 71.0351C204.564 70.8245 205.261 70.7193 205.717 70.2558C206.174 69.7923 206.269 69.0939 206.459 67.6971ZM208.371 54.8801L210.608 38.2872L217.956 53.4324L208.371 54.8801Z" fill="#FAFAFA"/>
<path d="M190.518 69.6592C191.251 71.3494 191.618 72.1945 191.321 72.9475C191.024 73.7005 190.179 74.0674 188.488 74.801L184.128 76.6936C182.438 77.4272 181.593 77.7941 180.84 77.4969C180.087 77.1998 179.72 76.3547 178.987 74.6644L170.582 55.3028L168.925 61.5154C167.745 65.9358 167.156 68.1459 165.412 68.8956C163.669 69.6453 161.659 68.5533 157.639 66.3693L152.135 63.3785L160.514 82.6828C161.248 84.373 161.615 85.2182 161.317 85.9712C161.02 86.7242 160.175 87.091 158.485 87.8247L154.699 89.4682C153.009 90.2019 152.163 90.5687 151.41 90.2716C150.657 89.9744 150.291 89.1293 149.557 87.4391L136.06 56.3457C135.326 54.6555 134.96 53.8104 135.257 53.0574C135.554 52.3043 136.399 51.9375 138.089 51.2038L143.324 48.9318C144.708 48.3309 145.4 48.0305 146.121 48.0841C146.842 48.1378 147.483 48.5373 148.763 49.3364L160.644 56.7531L163.543 42.858C163.847 41.4014 163.999 40.673 164.45 40.1194C164.9 39.5658 165.583 39.2696 166.948 38.6771L171.879 36.5367C173.569 35.803 174.414 35.4361 175.167 35.7333C175.92 36.0305 176.287 36.8756 177.021 38.5658L190.518 69.6592Z" fill="#FAFAFA"/>
<path fill-rule="evenodd" clip-rule="evenodd" d="M117.056 112.501C122.271 113.089 127.453 111.329 132.604 107.222C137.852 103.037 140.741 98.3338 141.27 93.1125C141.773 87.8586 139.828 82.4772 135.435 76.9682C130.99 71.394 126.157 68.3424 120.935 67.8132C115.721 67.2255 110.538 68.9852 105.388 73.0923C100.14 77.2773 97.251 81.9805 96.7218 87.2017C96.2253 92.397 98.1735 97.7492 102.567 103.258C107.012 108.832 111.841 111.913 117.056 112.501ZM129.353 93.4161C129.421 95.7082 128.412 97.686 126.326 99.3497C124.24 101.013 122.087 101.557 119.868 100.98C117.681 100.378 115.301 98.463 112.727 95.2359C110.102 91.9435 108.739 89.1643 108.638 86.8982C108.544 84.5735 109.54 82.5793 111.626 80.9157C113.778 79.2001 115.947 78.6435 118.134 79.246C120.295 79.8159 122.688 81.747 125.313 85.0394C127.913 88.2991 129.259 91.0914 129.353 93.4161Z" fill="#FAFAFA"/>
<path d="M110.988 119.508C112.446 120.634 113.176 121.197 113.279 122C113.383 122.803 112.82 123.532 111.694 124.991L110.466 126.582C109.615 127.685 109.189 128.237 108.588 128.537C107.986 128.837 107.29 128.845 105.896 128.862L81.221 129.162L95.2078 139.956C96.6662 141.082 97.3958 141.645 97.4993 142.448C97.6027 143.251 97.0399 143.98 95.9141 145.439L93.7363 148.261C92.6106 149.719 92.0477 150.449 91.2448 150.552C90.4419 150.656 89.7126 150.093 88.2538 148.967L61.4191 128.258C59.9604 127.133 59.231 126.57 59.1275 125.767C59.0241 124.964 59.587 124.235 60.7127 122.776L62.7288 120.163C63.6051 119.028 64.0432 118.46 64.6644 118.159C65.2855 117.858 66.0027 117.866 67.437 117.883L90.5917 118.146L77.1991 107.81C75.7404 106.685 75.011 106.122 74.9076 105.319C74.8041 104.516 75.367 103.787 76.4927 102.328L78.6705 99.5058C79.7963 98.0471 80.3591 97.3177 81.162 97.2143C81.9649 97.1108 82.6943 97.6737 84.153 98.7994L110.988 119.508Z" fill="#FAFAFA"/>
<path d="M51.6059 140.051C50.8342 140.295 50.41 141.113 49.5616 142.749L47.3731 146.968C46.5247 148.603 46.1005 149.421 46.3451 150.193C46.5896 150.965 47.4074 151.389 49.043 152.237L79.1326 167.844C80.7682 168.693 81.5861 169.117 82.3578 168.872C83.1295 168.628 83.5537 167.81 84.4021 166.174L86.5905 161.955C87.4389 160.32 87.8631 159.502 87.6186 158.73C87.374 157.958 86.5562 157.534 84.9205 156.686L54.831 141.079C53.1954 140.23 52.3776 139.806 51.6059 140.051Z" fill="#FAFAFA"/>
<path fill-rule="evenodd" clip-rule="evenodd" d="M43.8711 166.608C39.5531 168.848 36.3319 173.393 34.2074 180.242L29.9184 194.07C29.3725 195.83 29.0996 196.71 29.4767 197.426C29.8539 198.143 30.7338 198.416 32.4937 198.961L64.8685 209.003C66.6282 209.549 67.5083 209.822 68.2246 209.445C68.9409 209.068 69.2138 208.188 69.7597 206.428L74.0487 192.6C76.1608 185.791 76.0769 180.221 73.7969 175.89C71.5169 171.56 67.0518 168.363 60.4016 166.301C53.7116 164.226 48.2014 164.328 43.8711 166.608ZM64.0272 183.533C65.3649 185.694 65.5583 188.308 64.6072 191.374L63.3659 195.376L41.4442 188.576L42.6855 184.574C44.6247 178.322 49.2579 176.333 56.585 178.606C60.2087 179.729 62.6895 181.372 64.0272 183.533Z" fill="#FAFAFA"/>
<path d="M249.916 25.3413C251.758 25.3919 252.679 25.4172 253.235 26.0051C253.792 26.593 253.766 27.5139 253.716 29.3558L252.785 63.2394C252.735 65.0813 252.709 66.0022 252.121 66.5587C251.533 67.1152 250.612 67.0899 248.771 67.0393L244.019 66.9088C242.178 66.8582 241.257 66.8329 240.7 66.245C240.144 65.6571 240.169 64.7362 240.219 62.8943L241.15 29.0107C241.201 27.1688 241.226 26.2479 241.814 25.6914C242.402 25.1349 243.323 25.1602 245.165 25.2108L249.916 25.3413Z" fill="#FAFAFA"/>
<path d="M280.712 28.982C280.254 28.3145 279.348 28.1459 277.537 27.8087L272.864 26.9389C271.052 26.6016 270.147 26.433 269.479 26.891C268.812 27.349 268.643 28.2547 268.306 30.0662L262.102 63.3901C261.765 65.2015 261.597 66.1073 262.055 66.7748C262.513 67.4423 263.418 67.6109 265.23 67.9481L286.38 71.8853C288.191 72.2226 289.097 72.3912 289.765 71.9332C290.432 71.4752 290.601 70.5695 290.938 68.758L291.407 66.2372C291.744 64.4264 291.913 63.5199 291.455 62.8525C290.997 62.185 290.091 62.0164 288.28 61.6791L275.645 59.3271L280.664 32.3667C281.001 30.5553 281.17 29.6495 280.712 28.982Z" fill="#FAFAFA"/>
<path fill-rule="evenodd" clip-rule="evenodd" d="M326.237 44.8777C327.091 43.2452 327.519 42.429 328.291 42.1872C329.064 41.9455 329.88 42.3727 331.513 43.2271L346.168 50.8973C350.823 53.3332 353.846 56.2332 355.239 59.5971C356.65 62.9241 356.283 66.6377 354.137 70.738C351.914 74.9861 348.909 77.6252 345.123 78.6554C341.356 79.6487 337.22 78.966 332.713 76.6074L325.731 72.9535L321.657 80.7386C320.803 82.3709 320.375 83.1874 319.603 83.4291C318.83 83.6708 318.014 83.2436 316.381 82.3892L312.17 80.1853C310.538 79.3309 309.721 78.9037 309.48 78.1311C309.238 77.3586 309.665 76.5423 310.52 74.9098L326.237 44.8777ZM335.532 67.848C336.53 68.37 337.602 68.3898 338.748 67.9076C339.895 67.4253 340.806 66.5377 341.483 65.2448C342.353 63.5825 342.65 62.1613 342.373 60.9814C342.153 59.7837 341.526 58.9143 340.491 58.373L334.895 55.4441L329.936 64.9191L335.532 67.848Z" fill="#FAFAFA"/>
<path fill-rule="evenodd" clip-rule="evenodd" d="M350.286 96.2881C350.634 101.524 353.286 106.312 358.243 110.651C363.294 115.072 368.435 117.079 373.668 116.672C378.927 116.234 383.878 113.364 388.519 108.062C393.214 102.697 395.359 97.3991 394.952 92.1669C394.604 86.9308 391.952 82.1433 386.995 77.8044C381.944 73.3832 376.803 71.376 371.57 71.7829C366.369 72.2172 361.449 75.0853 356.808 80.3871C352.112 85.7517 349.938 91.052 350.286 96.2881ZM371.252 104.999C369.008 105.474 366.883 104.832 364.875 103.074C362.867 101.317 361.95 99.2948 362.123 97.0082C362.327 94.7491 363.789 92.0666 366.507 88.9608C369.281 85.7923 371.774 83.9572 373.986 83.4556C376.257 82.9501 378.396 83.5761 380.404 85.3336C382.475 87.1461 383.408 89.1818 383.203 91.4409C383.027 93.6687 381.551 96.3668 378.778 99.5354C376.032 102.673 373.523 104.494 371.252 104.999Z" fill="#FAFAFA"/>
<path d="M408.874 127.561C411.782 135.241 410.86 140.811 406.107 144.271C403.848 145.914 401.45 146.835 398.912 147.032C396.432 147.238 393.931 146.635 391.407 145.222C388.884 143.81 386.519 141.587 384.311 138.553C382.888 136.598 381.652 134.403 380.602 131.97C380.096 130.834 379.65 129.707 379.264 128.59C378.712 126.992 378.435 126.194 378.833 125.443C379.23 124.693 380.105 124.456 381.856 123.982L383.687 123.487C385.451 123.01 386.333 122.771 387.015 123.133C387.697 123.496 388.012 124.416 388.642 126.258C389.588 129.023 390.689 131.269 391.946 132.996C392.78 134.142 393.633 134.888 394.503 135.235C395.432 135.59 396.352 135.436 397.262 134.774C397.97 134.259 398.219 133.433 398.011 132.295C397.835 131.134 397.378 129.584 396.639 127.647L396.243 126.466C395.482 124.286 394.953 122.248 394.655 120.351C394.415 118.463 394.614 116.539 395.251 114.58C395.912 112.655 397.305 110.92 399.429 109.374C402.901 106.847 406.545 105.974 410.362 106.754C414.212 107.51 417.744 110.096 420.958 114.512C422.381 116.467 423.605 118.645 424.629 121.045C425.146 122.194 425.6 123.329 425.991 124.452C426.551 126.056 426.831 126.858 426.429 127.613C426.028 128.367 425.145 128.6 423.38 129.064L421.707 129.504C419.961 129.963 419.087 130.193 418.416 129.84C417.744 129.487 417.413 128.572 416.752 126.742C415.816 124.148 414.672 121.924 413.323 120.069C412.611 119.091 411.815 118.459 410.936 118.171C410.08 117.917 409.181 118.133 408.237 118.82C407.495 119.36 407.077 120.025 406.982 120.816C406.946 121.616 407.055 122.439 407.309 123.285C407.564 124.131 408.086 125.556 408.874 127.561Z" fill="#FAFAFA"/>
<path d="M427.481 143.353L430.192 149.23L404.38 161.134C402.707 161.906 401.87 162.292 401.59 163.051C401.31 163.811 401.696 164.647 402.468 166.321L404.458 170.637C405.23 172.309 405.616 173.147 406.375 173.427C407.135 173.707 407.971 173.321 409.644 172.549L435.456 160.645L438.271 166.75C439.043 168.424 439.429 169.26 440.188 169.54C440.948 169.82 441.785 169.435 443.458 168.663L444.878 168.008C446.551 167.236 447.387 166.851 447.668 166.091C447.948 165.332 447.562 164.495 446.79 162.822L435.999 139.424C435.228 137.751 434.842 136.914 434.082 136.634C433.323 136.354 432.486 136.74 430.813 137.511L429.393 138.166C427.72 138.938 426.883 139.324 426.603 140.083C426.323 140.843 426.709 141.68 427.481 143.353Z" fill="#FAFAFA"/>
<path fill-rule="evenodd" clip-rule="evenodd" d="M453.389 307.351C451.264 314.2 448.043 318.745 443.725 320.985C439.395 323.265 433.884 323.368 427.194 321.293C420.544 319.23 416.079 316.033 413.799 311.703C411.519 307.373 411.435 301.803 413.547 294.993L417.836 281.165C418.382 279.406 418.655 278.526 419.371 278.149C420.088 277.771 420.968 278.044 422.727 278.59L455.102 288.632C456.862 289.178 457.742 289.451 458.119 290.167C458.496 290.883 458.224 291.763 457.678 293.523L453.389 307.351ZM422.989 296.219C422.038 299.286 422.231 301.899 423.569 304.06C424.907 306.221 427.387 307.864 431.011 308.988C438.338 311.261 442.971 309.271 444.91 303.019L446.152 299.017L424.23 292.217L422.989 296.219Z" fill="#FAFAFA"/>
<path d="M438.034 344.845C437.186 346.48 436.762 347.298 435.99 347.543C435.218 347.787 434.401 347.363 432.765 346.515L402.676 330.908C401.04 330.059 400.222 329.635 399.977 328.863C399.733 328.092 400.157 327.274 401.005 325.638L403.194 321.419C404.042 319.783 404.467 318.966 405.238 318.721C406.01 318.476 406.828 318.901 408.463 319.749L438.553 335.356C440.189 336.205 441.006 336.629 441.251 337.4C441.496 338.172 441.071 338.99 440.223 340.626L438.034 344.845Z" fill="#FAFAFA"/>
<path d="M374.317 365.594C374.42 366.397 375.15 366.959 376.608 368.085L403.443 388.794C404.902 389.92 405.631 390.483 406.434 390.379C407.237 390.276 407.8 389.546 408.925 388.088L411.103 385.265C412.229 383.807 412.792 383.077 412.688 382.275C412.585 381.472 411.856 380.909 410.397 379.783L397.004 369.448L420.159 369.711C421.593 369.727 422.311 369.735 422.932 369.434C423.553 369.133 423.991 368.566 424.867 367.43L426.883 364.818C428.009 363.359 428.572 362.629 428.468 361.827C428.365 361.024 427.636 360.461 426.177 359.335L399.342 338.626C397.883 337.501 397.154 336.938 396.351 337.041C395.548 337.145 394.985 337.874 393.86 339.333L391.682 342.155C390.556 343.614 389.993 344.343 390.097 345.146C390.2 345.949 390.93 346.511 392.388 347.637L406.375 358.431L381.7 358.731C380.306 358.748 379.61 358.757 379.008 359.057C378.407 359.357 377.981 359.908 377.13 361.012L375.902 362.603C374.776 364.061 374.213 364.791 374.317 365.594Z" fill="#FAFAFA"/>
<path fill-rule="evenodd" clip-rule="evenodd" d="M354.992 380.371C360.143 376.264 365.325 374.505 370.54 375.092C375.755 375.68 380.585 378.761 385.029 384.335C389.423 389.844 391.371 395.196 390.874 400.392C390.345 405.613 387.456 410.316 382.208 414.501C377.058 418.608 371.875 420.368 366.661 419.78C361.439 419.251 356.606 416.199 352.161 410.625C347.768 405.116 345.823 399.735 346.326 394.481C346.855 389.26 349.744 384.556 354.992 380.371ZM361.27 388.244C359.184 389.907 358.175 391.885 358.243 394.177C358.337 396.502 359.683 399.294 362.283 402.554C364.908 405.846 367.301 407.777 369.462 408.347C371.649 408.95 373.818 408.393 375.97 406.678C378.056 405.014 379.052 403.02 378.958 400.695C378.857 398.429 377.494 395.65 374.869 392.357C372.295 389.13 369.915 387.216 367.728 386.613C365.509 386.037 363.356 386.58 361.27 388.244Z" fill="#FAFAFA"/>
<path d="M296.275 414.646C295.978 415.399 296.345 416.244 297.079 417.934L310.575 449.028C311.309 450.718 311.676 451.563 312.429 451.86C313.182 452.157 314.027 451.79 315.717 451.057L320.648 448.916C322.013 448.324 322.696 448.028 323.146 447.474C323.597 446.92 323.749 446.192 324.053 444.735L326.952 430.84L338.833 438.257C340.113 439.056 340.754 439.456 341.475 439.509C342.196 439.563 342.888 439.262 344.273 438.662L349.507 436.39C351.197 435.656 352.042 435.289 352.339 434.536C352.636 433.783 352.27 432.938 351.536 431.248L338.039 400.154C337.306 398.464 336.939 397.619 336.186 397.322C335.433 397.025 334.588 397.391 332.898 398.125L329.111 399.769C327.421 400.502 326.576 400.869 326.279 401.622C325.981 402.375 326.348 403.22 327.082 404.911L335.461 424.215L329.957 421.224C325.937 419.04 323.927 417.948 322.184 418.698C320.44 419.447 319.851 421.658 318.671 426.078L317.014 432.291L308.609 412.929C307.876 411.239 307.509 410.394 306.756 410.096C306.003 409.799 305.158 410.166 303.468 410.9L299.108 412.792C297.417 413.526 296.572 413.893 296.275 414.646Z" fill="#FAFAFA"/>
<path fill-rule="evenodd" clip-rule="evenodd" d="M280.513 424.486L281.137 419.896C281.327 418.5 281.422 417.801 281.879 417.338C282.335 416.874 283.032 416.769 284.426 416.558L288.154 415.995C290.631 415.621 291.869 415.434 292.57 416.16C293.27 416.885 293.04 418.116 292.58 420.579L285.984 455.856C285.737 457.175 285.614 457.835 285.165 458.268C284.716 458.701 284.053 458.802 282.726 459.002L272.791 460.503C271.422 460.709 270.738 460.813 270.171 460.515C269.604 460.217 269.3 459.595 268.694 458.35L253.13 426.42C252.063 424.233 251.53 423.14 251.99 422.264C252.45 421.388 253.653 421.206 256.059 420.843L260.047 420.24C261.431 420.031 262.122 419.927 262.693 420.231C263.263 420.534 263.563 421.166 264.163 422.43L266.166 426.653L280.513 424.486ZM276.988 449.306L279.225 432.713L269.64 434.161L276.988 449.306Z" fill="#FAFAFA"/>
<path d="M234.361 461.588C234.917 462.176 235.838 462.201 237.68 462.252L242.431 462.383C244.273 462.433 245.194 462.458 245.782 461.902C246.37 461.346 246.395 460.425 246.446 458.583L247.377 424.699C247.427 422.857 247.452 421.936 246.896 421.348C246.339 420.76 245.418 420.735 243.577 420.685L238.825 420.554C236.984 420.503 236.063 420.478 235.475 421.035C234.887 421.591 234.861 422.512 234.811 424.354L233.88 458.238C233.83 460.079 233.804 461 234.361 461.588Z" fill="#FAFAFA"/>
<path d="M210.059 459.785C208.248 459.447 207.342 459.279 206.884 458.611C206.426 457.944 206.595 457.038 206.932 455.227L211.951 428.266L199.316 425.914C197.505 425.577 196.599 425.408 196.141 424.741C195.683 424.073 195.852 423.168 196.189 421.356L196.658 418.835C196.995 417.024 197.164 416.118 197.831 415.66C198.499 415.202 199.405 415.371 201.216 415.708L222.366 419.645C224.178 419.982 225.083 420.151 225.541 420.819C225.999 421.486 225.831 422.392 225.494 424.203L219.29 457.527C218.953 459.339 218.784 460.244 218.117 460.702C217.449 461.16 216.544 460.992 214.732 460.655L210.059 459.785Z" fill="#FAFAFA"/>
<path fill-rule="evenodd" clip-rule="evenodd" d="M159.305 445.406C160.077 445.164 160.505 444.348 161.359 442.716L177.076 412.684C177.931 411.051 178.358 410.235 178.116 409.462C177.875 408.69 177.058 408.262 175.426 407.408L171.215 405.204C169.582 404.35 168.766 403.923 167.993 404.164C167.221 404.406 166.794 405.222 165.939 406.855L161.865 414.64L154.883 410.986C150.377 408.627 146.24 407.945 142.473 408.938C138.687 409.968 135.682 412.607 133.459 416.855C131.313 420.956 130.946 424.669 132.358 427.996C133.75 431.36 136.773 434.26 141.428 436.696L156.083 444.366C157.716 445.221 158.532 445.648 159.305 445.406ZM148.848 419.686C149.994 419.204 151.066 419.223 152.064 419.745L157.66 422.674L152.701 432.149L147.105 429.22C146.07 428.679 145.443 427.81 145.223 426.612C144.946 425.432 145.243 424.011 146.113 422.349C146.79 421.056 147.701 420.168 148.848 419.686Z" fill="#FAFAFA"/>
<path fill-rule="evenodd" clip-rule="evenodd" d="M129.353 376.943C134.31 381.282 136.962 386.069 137.31 391.305C137.658 396.541 135.484 401.842 130.788 407.206C126.147 412.508 121.227 415.376 116.026 415.81C110.794 416.217 105.652 414.21 100.601 409.789C95.6444 405.45 92.992 400.663 92.644 395.426C92.2371 390.194 94.3816 384.896 99.0774 379.531C103.718 374.229 108.669 371.359 113.928 370.921C119.161 370.514 124.302 372.522 129.353 376.943ZM122.721 384.519C120.713 382.762 118.588 382.12 116.344 382.594C114.073 383.099 111.564 384.921 108.818 388.058C106.045 391.227 104.57 393.925 104.393 396.152C104.188 398.412 105.121 400.447 107.192 402.26C109.2 404.017 111.339 404.643 113.61 404.138C115.822 403.636 118.315 401.801 121.089 398.632C123.807 395.527 125.269 392.844 125.473 390.585C125.646 388.299 124.729 386.277 122.721 384.519Z" fill="#FAFAFA"/>
<path d="M81.4892 343.323C76.736 346.782 75.8136 352.352 78.7219 360.033C79.5104 362.037 80.0319 363.462 80.2866 364.308C80.5413 365.154 80.6504 365.977 80.6139 366.777C80.5191 367.568 80.1009 368.234 79.3593 368.773C78.4154 369.46 77.5157 369.677 76.6604 369.423C75.7806 369.135 74.9849 368.502 74.2735 367.524C72.9237 365.67 71.7804 363.445 70.8436 360.851C70.1828 359.021 69.8523 358.106 69.1805 357.753C68.5086 357.4 67.6355 357.63 65.8891 358.089L64.2159 358.53C62.4507 358.994 61.5681 359.226 61.1666 359.981C60.7651 360.735 61.045 361.537 61.6047 363.142C61.9963 364.264 62.4503 365.4 62.9667 366.549C63.9913 368.948 65.2151 371.126 66.638 373.081C69.8519 377.497 73.3839 380.083 77.2342 380.839C81.0508 381.62 84.6952 380.746 88.1674 378.219C90.2912 376.674 91.6838 374.938 92.3453 373.013C92.9823 371.054 93.1809 369.131 92.9412 367.243C92.6433 365.345 92.1139 363.307 91.353 361.128L90.9572 359.946C90.2178 358.009 89.7605 356.46 89.5855 355.298C89.3766 354.161 89.6262 353.335 90.3342 352.819C91.2443 352.157 92.1639 352.003 93.0928 352.359C93.9635 352.705 94.8158 353.451 95.65 354.597C96.9067 356.324 98.0081 358.57 98.9542 361.335C99.5842 363.177 99.8993 364.098 100.581 364.46C101.263 364.822 102.145 364.584 103.909 364.106L105.74 363.611C107.491 363.137 108.366 362.9 108.763 362.15C109.161 361.4 108.884 360.601 108.332 359.004C107.946 357.886 107.5 356.76 106.994 355.624C105.944 353.19 104.708 350.996 103.285 349.04C101.077 346.006 98.7119 343.783 96.1887 342.371C93.6654 340.959 91.1639 340.356 88.6841 340.562C86.1461 340.759 83.7478 341.679 81.4892 343.323Z" fill="#FAFAFA"/>
<path d="M60.1153 344.241C60.8869 345.914 61.2728 346.751 60.9927 347.51C60.7127 348.27 59.8762 348.655 58.2035 349.427L56.783 350.082C55.1098 350.854 54.2732 351.239 53.5136 350.959C52.7541 350.679 52.3683 349.843 51.5966 348.17L40.8059 324.772C40.0343 323.098 39.6484 322.262 39.9285 321.502C40.2086 320.743 41.0451 320.357 42.7182 319.585L44.1382 318.93C45.8114 318.159 46.648 317.773 47.4076 318.053C48.1671 318.333 48.5529 319.17 49.3246 320.843L52.1401 326.948L77.9516 315.044C79.6248 314.273 80.4614 313.887 81.2209 314.167C81.9804 314.447 82.3663 315.284 83.1379 316.957L85.1284 321.273C85.9001 322.946 86.2859 323.783 86.0059 324.542C85.7258 325.302 84.8892 325.688 83.216 326.459L57.4045 338.363L60.1153 344.241Z" fill="#FAFAFA"/>
<path d="M56.9725 255.097C56.7894 253.026 55.2929 251.73 52.4831 251.208C51.7445 251.081 51.2264 250.979 50.9286 250.902C50.6309 250.825 50.3659 250.707 50.1339 250.55C49.9149 250.377 49.7912 250.129 49.7626 249.806C49.7262 249.395 49.8223 249.083 50.0508 248.87C50.2937 248.656 50.6245 248.531 51.043 248.494C51.8852 248.419 52.8099 248.491 53.8172 248.709C54.39 248.833 54.6764 248.895 54.8753 248.776C55.0741 248.657 55.1496 248.392 55.3005 247.863L55.58 246.883C55.7283 246.363 55.8025 246.103 55.6743 245.886C55.546 245.67 55.2988 245.613 54.8042 245.5C54.3406 245.394 53.8567 245.31 53.3526 245.248C52.454 245.12 51.5861 245.093 50.7489 245.167C48.8582 245.334 47.4564 245.932 46.5435 246.96C45.6294 247.973 45.2393 249.236 45.373 250.749C45.4548 251.674 45.7237 252.413 46.1798 252.965C46.6503 253.515 47.1885 253.926 47.7944 254.199C48.4134 254.455 49.1158 254.666 49.9016 254.834L50.3246 254.93C51.0343 255.059 51.578 255.204 51.9557 255.363C52.3321 255.507 52.534 255.733 52.5612 256.042C52.5963 256.438 52.4779 256.745 52.2062 256.961C51.9475 257.162 51.5728 257.284 51.0821 257.327C50.3001 257.396 49.3759 257.307 48.3096 257.059C47.7382 256.926 47.4526 256.859 47.25 256.98C47.0473 257.1 46.9729 257.368 46.824 257.904L46.5355 258.943C46.3917 259.461 46.3198 259.72 46.4476 259.935C46.5755 260.15 46.8213 260.207 47.3129 260.321C47.7741 260.428 48.2534 260.512 48.7509 260.575C49.6639 260.702 50.539 260.728 51.3761 260.654C52.6752 260.539 53.7605 260.229 54.6321 259.722C55.5038 259.216 56.1302 258.568 56.5114 257.78C56.9058 256.975 57.0595 256.081 56.9725 255.097Z" fill="#FAFAFA"/>
<path d="M42.6446 246.433C42.4585 246.277 42.1831 246.302 41.6325 246.35L33.7281 247.049C33.1775 247.098 32.9022 247.122 32.7462 247.308C32.5903 247.495 32.6146 247.77 32.6633 248.32L33.7558 260.679C33.8045 261.23 33.8288 261.505 34.015 261.661C34.2012 261.817 34.4765 261.793 35.0272 261.744L42.9316 261.045C43.4822 260.997 43.7575 260.972 43.9134 260.786C44.0694 260.6 44.045 260.325 43.9964 259.774L43.9107 258.805C43.8621 258.255 43.8377 257.979 43.6515 257.823C43.4654 257.668 43.1901 257.692 42.6394 257.741L37.9186 258.158L37.6986 255.668L41.5966 255.324C42.1473 255.275 42.4226 255.251 42.5785 255.065C42.7345 254.878 42.7101 254.603 42.6614 254.052L42.5914 253.26C42.5427 252.709 42.5184 252.434 42.3322 252.278C42.146 252.122 41.8707 252.147 41.3201 252.195L37.422 252.54L37.2039 250.072L41.9247 249.655C42.4753 249.606 42.7506 249.582 42.9065 249.396C43.0625 249.21 43.0381 248.934 42.9895 248.384L42.9038 247.415C42.8552 246.865 42.8308 246.589 42.6446 246.433Z" fill="#FAFAFA"/>
<path d="M33.3105 268.583C32.7599 268.632 32.4846 268.656 32.2984 268.5C32.1122 268.344 32.0879 268.069 32.0392 267.518L31.9536 266.55C31.9049 265.999 31.8806 265.724 32.0365 265.538C32.1924 265.351 32.4678 265.327 33.0184 265.278L42.3084 264.457C42.859 264.408 43.1344 264.384 43.3205 264.54C43.5067 264.696 43.531 264.971 43.5797 265.522L43.6653 266.49C43.714 267.041 43.7384 267.316 43.5824 267.503C43.4265 267.689 43.1512 267.713 42.6005 267.762L40.0881 267.984L40.9917 278.206C41.0404 278.757 41.0647 279.032 40.9088 279.218C40.7529 279.404 40.4776 279.429 39.9269 279.477L37.9114 279.656C37.3607 279.704 37.0854 279.729 36.8992 279.573C36.7131 279.417 36.6887 279.141 36.64 278.591L35.7364 268.369L33.3105 268.583Z" fill="#FAFAFA"/>
<path fill-rule="evenodd" clip-rule="evenodd" d="M57.4697 264.96C56.1784 263.845 54.2915 263.398 51.8089 263.617L46.6118 264.077C46.0612 264.125 45.7859 264.15 45.6299 264.336C45.474 264.522 45.4983 264.797 45.547 265.348L46.6395 277.707C46.6882 278.257 46.7126 278.533 46.8987 278.689C47.0849 278.845 47.3602 278.82 47.9109 278.772L53.108 278.312C55.5761 278.094 57.3552 277.322 58.4454 275.997C59.5357 274.672 59.9723 272.784 59.7555 270.331C59.5374 267.863 58.7754 266.073 57.4697 264.96ZM54.6964 273.82C54.1788 274.546 53.3643 274.959 52.2529 275.057L50.8023 275.185L50.0876 267.1L51.5381 266.972C53.8042 266.771 55.0567 268.022 55.2956 270.725C55.4137 272.062 55.214 273.093 54.6964 273.82Z" fill="#FAFAFA"/>
<path d="M439.762 224.682C439.811 225.232 439.835 225.508 439.679 225.694C439.523 225.88 439.248 225.904 438.697 225.953L429.946 226.727C429.395 226.775 429.12 226.8 428.934 226.644C428.748 226.488 428.723 226.212 428.675 225.662L428.668 225.591C428.579 224.573 428.534 224.065 428.705 223.66C428.877 223.255 429.338 222.883 430.261 222.138C430.508 221.938 430.759 221.726 431.014 221.501C431.924 220.713 432.682 219.858 433.289 218.934C433.895 218.011 434.162 217.139 434.09 216.32C434.041 215.764 433.852 215.361 433.524 215.11C433.195 214.844 432.833 214.728 432.438 214.763C431.752 214.824 430.94 215.06 430.002 215.472C429.457 215.71 429.184 215.83 428.961 215.746C428.738 215.663 428.618 215.408 428.378 214.897L427.921 213.929C427.698 213.455 427.587 213.219 427.67 212.989C427.754 212.76 427.977 212.657 428.423 212.451C429.625 211.897 430.866 211.563 432.145 211.45C434.149 211.273 435.697 211.571 436.79 212.344C437.899 213.116 438.514 214.197 438.637 215.586C438.747 216.83 438.485 218.025 437.853 219.172C437.218 220.304 436.247 221.43 434.939 222.548L438.37 222.245C438.92 222.196 439.196 222.172 439.382 222.327C439.568 222.483 439.592 222.759 439.641 223.309L439.762 224.682Z" fill="#FAFAFA"/>
<path fill-rule="evenodd" clip-rule="evenodd" d="M449.07 225.346C446.703 225.555 444.91 225.087 443.692 223.941C442.489 222.794 441.773 220.919 441.543 218.315C441.312 215.711 441.689 213.739 442.672 212.399C443.67 211.058 445.353 210.282 447.72 210.073C450.088 209.864 451.881 210.332 453.099 211.477C454.332 212.621 455.064 214.495 455.294 217.099C455.524 219.703 455.132 221.677 454.119 223.02C453.121 224.361 451.438 225.136 449.07 225.346ZM448.762 221.857C449.475 221.794 449.995 221.445 450.322 220.812C450.663 220.177 450.765 219.077 450.627 217.512C450.479 215.844 450.169 214.759 449.696 214.255C449.238 213.75 448.683 213.526 448.031 213.584C447.348 213.644 446.835 213.992 446.494 214.626C446.167 215.26 446.073 216.352 446.21 217.902C446.329 219.248 446.579 220.266 446.961 220.954C447.342 221.628 447.942 221.929 448.762 221.857Z" fill="#FAFAFA"/>
<path d="M442.122 243.572C442.278 243.386 442.254 243.111 442.205 242.56L442.084 241.188C442.035 240.637 442.011 240.362 441.825 240.206C441.639 240.05 441.363 240.074 440.813 240.123L437.382 240.426C438.69 239.308 439.662 238.183 440.296 237.05C440.929 235.903 441.19 234.708 441.08 233.465C440.957 232.075 440.342 230.994 439.233 230.222C438.14 229.449 436.592 229.151 434.588 229.328C433.309 229.441 432.068 229.775 430.866 230.329C430.42 230.535 430.197 230.638 430.113 230.867C430.03 231.097 430.141 231.334 430.365 231.807L430.821 232.775C431.061 233.285 431.181 233.541 431.404 233.625C431.628 233.708 431.9 233.589 432.445 233.35C433.383 232.938 434.196 232.702 434.881 232.641C435.276 232.607 435.638 232.722 435.967 232.988C436.295 233.239 436.484 233.642 436.533 234.198C436.606 235.017 436.338 235.889 435.732 236.812C435.125 237.736 434.367 238.592 433.458 239.38C433.203 239.604 432.951 239.816 432.704 240.016C431.782 240.761 431.32 241.134 431.149 241.538C430.977 241.943 431.022 242.451 431.112 243.469L431.118 243.54C431.167 244.091 431.191 244.366 431.377 244.522C431.563 244.678 431.839 244.654 432.389 244.605L441.141 243.831C441.691 243.783 441.967 243.758 442.122 243.572Z" fill="#FAFAFA"/>
<path d="M453.015 234.776C453.937 234.989 454.652 235.376 455.16 235.935C455.683 236.493 455.983 237.204 456.06 238.067C456.146 239.047 455.917 239.915 455.372 240.671C454.826 241.412 454.067 242.003 453.097 242.443C452.14 242.866 451.077 243.13 449.908 243.233C449.073 243.307 448.207 243.288 447.31 243.175C446.816 243.105 446.337 243.017 445.872 242.908C445.362 242.79 445.107 242.731 444.979 242.511C444.852 242.292 444.931 242.028 445.089 241.499L445.376 240.536C445.532 240.014 445.61 239.753 445.808 239.636C446.006 239.519 446.291 239.581 446.859 239.705C447.856 239.922 448.775 239.994 449.615 239.92C450.238 239.865 450.751 239.701 451.155 239.43C451.559 239.158 451.742 238.795 451.702 238.342C451.66 237.874 451.455 237.545 451.087 237.357C450.718 237.168 450.17 237.106 449.441 237.171L448.105 237.289C447.554 237.337 447.279 237.362 447.093 237.206C446.907 237.05 446.882 236.775 446.834 236.224L446.759 235.378C446.71 234.828 446.686 234.552 446.842 234.366C446.998 234.18 447.273 234.156 447.824 234.107L449.205 233.985C449.676 233.943 450.022 233.795 450.244 233.539C450.48 233.268 450.582 232.942 450.548 232.561C450.513 232.166 450.343 231.886 450.038 231.722C449.733 231.557 449.451 231.486 449.193 231.509C448.352 231.583 447.46 231.815 446.517 232.204C445.979 232.426 445.71 232.536 445.495 232.456C445.279 232.376 445.157 232.132 444.911 231.645L444.46 230.748C444.211 230.255 444.087 230.008 444.175 229.769C444.264 229.53 444.504 229.429 444.985 229.227C445.424 229.043 445.88 228.877 446.355 228.73C447.217 228.447 448.065 228.269 448.9 228.195C449.947 228.103 450.91 228.18 451.789 228.427C452.666 228.659 453.382 229.06 453.937 229.63C454.491 230.185 454.805 230.88 454.879 231.714C454.919 232.168 454.843 232.609 454.651 233.039C454.459 233.454 454.208 233.815 453.898 234.123C453.589 234.43 453.295 234.648 453.015 234.776Z" fill="#FAFAFA"/>
<path fill-rule="evenodd" clip-rule="evenodd" d="M83.1902 257.993C75.3489 169.292 140.899 91.0284 229.6 83.1871C318.302 75.3458 396.565 140.896 404.406 229.597C412.247 318.298 346.697 396.562 257.996 404.403C169.295 412.244 91.0315 346.694 83.1902 257.993ZM91.0136 221.103C91.931 221.831 93.3763 221.205 96.267 219.952C100.431 218.148 104.335 216.535 107.67 215.244C126.474 207.963 147.849 200.454 166.226 207.905C176.419 212.038 189.39 217.52 200.144 222.065L200.148 222.067C208.782 225.716 215.987 228.761 219.177 230.019C226.341 232.843 230.163 232.073 231.726 230.206C233.29 228.339 232.293 221.944 228.407 217.102C224.522 212.259 223.058 205.474 225.251 200.959C227.445 196.443 227.066 192.155 223.56 191.6C222.36 191.411 216.042 192.332 208.22 193.472C193.191 195.662 172.608 198.663 172.102 196.149C171.501 193.169 206.628 180.984 225.487 174.442L225.488 174.441C230.808 172.596 234.833 171.2 236.396 170.586C239.361 169.421 241.035 168.145 242.717 166.862C245.064 165.073 247.427 163.271 253.333 161.742C258.354 160.442 261.27 160.494 263.796 160.539C266.371 160.585 268.541 160.624 272.125 159.216C277.103 157.261 300.837 146.426 315.873 139.563L315.876 139.561L315.878 139.56C322.287 136.635 327.114 134.431 328.233 133.944C331.979 132.317 336.028 134.12 330.164 141.121C324.301 148.121 299.242 162.869 294.248 165.04C293.269 165.465 292.19 165.9 291.091 166.342C286.585 168.157 281.732 170.112 281.914 172.18C282.142 174.753 296.179 172.216 303.519 167.245C306.382 165.306 311.017 161.829 315.684 158.328C322.98 152.855 330.354 147.323 331.162 147.515C332.486 147.83 329.65 159.749 308.88 174.118C296.34 182.793 291.288 185.293 288.102 186.87C286.01 187.905 284.723 188.542 282.649 190.266C280.249 192.262 278.504 194.473 276.881 196.529C274.966 198.956 273.221 201.166 270.77 202.553C269.413 203.32 268.042 203.934 266.683 204.542C263.507 205.964 260.392 207.359 257.654 210.627C253.745 215.294 246.079 226.344 253.155 233.065C260.232 239.786 285.997 223.247 300.057 211.2C314.118 199.153 323.488 192.706 326.604 193.728C329.719 194.749 333.948 218.144 324.595 249.223C318.608 269.116 314.827 287.929 311.622 303.879C309.82 312.846 308.199 320.91 306.471 327.751C304.025 337.433 297.252 362.859 290.246 385.733C289.29 388.855 288.813 390.415 289.678 391.248C290.542 392.08 292.05 391.555 295.066 390.503C360.671 367.632 404.963 302.477 398.566 230.113C391.01 144.638 315.592 81.4712 230.117 89.0274C158.888 95.324 103.152 148.744 90.9226 215.84C90.3717 218.863 90.0962 220.374 91.0136 221.103ZM88.8695 242.744C89.3389 242.187 90.1282 242.063 91.7069 241.813C95.1273 241.271 98.2641 240.756 100.851 240.331L100.863 240.329C102.313 240.091 103.589 239.881 104.645 239.711C116.576 237.792 131.599 246.404 141.867 255.004C147.107 259.392 155.453 263.281 163.912 267.222C172.029 271.004 180.249 274.834 185.926 279.2C197.518 288.115 177.08 325.792 174.104 331.241C171.379 336.231 169.52 334.62 167.434 332.812C167.243 332.646 167.049 332.478 166.852 332.314C164.519 330.359 163.585 329.578 161.631 331.911C159.676 334.245 162.628 338.306 166.829 341.824C171.029 345.342 177.348 343.487 180.084 340.22C181.097 339.01 183.056 335.761 185.212 332.185C188.879 326.104 193.117 319.076 194.244 319.52C195.209 319.901 194.941 324.78 194.696 329.249C194.486 333.077 194.292 336.604 194.903 336.749C195.43 336.874 198.294 334.81 201.67 332.376C206.779 328.692 213.061 324.163 214.186 325.104C216.052 326.668 208.992 344.579 203.911 350.646C199.409 356.021 197.311 354.062 195.593 352.457L195.592 352.456C195.371 352.25 195.156 352.049 194.943 351.871C193.077 350.308 189.885 348.429 187.931 350.762C185.976 353.096 184.564 356.678 192.965 363.715C201.366 370.751 214.115 353.634 218.263 346.785C219.105 345.394 220.086 342.353 221.314 338.549C226.133 323.611 234.75 296.901 253.66 312.107C277.387 331.186 273.232 372.177 269.93 383.705C269.196 386.266 268.587 389.987 268.161 394.207C268.009 395.717 267.932 396.471 267.461 396.959C266.99 397.446 266.268 397.544 264.823 397.74C262.395 398.07 259.947 398.345 257.48 398.563C172.004 406.119 96.5867 342.953 89.0305 257.477C88.6799 253.511 88.4816 249.567 88.4306 245.65C88.4103 244.084 88.4001 243.301 88.8695 242.744ZM253.672 180.292C252.081 178.96 251.265 177.046 251.275 175.121C251.283 173.421 251.288 172.57 251.068 172.474C250.848 172.378 250.33 172.86 249.296 173.824C246.344 176.576 243.873 179.883 244.239 181.127C245.325 183.625 254.909 183.916 257.796 182.953C266.612 180.013 273.333 172.936 272.248 170.439C271.496 168.709 266.967 168.379 262.584 168.665C261.919 168.708 261.586 168.73 261.497 168.798C261.364 168.902 261.324 169.025 261.37 169.188C261.401 169.295 261.691 169.538 262.271 170.024C265.107 172.399 265.481 176.623 263.106 179.458C260.731 182.294 256.507 182.667 253.672 180.292Z" fill="#FAFAFA"/>
<path fill-rule="evenodd" clip-rule="evenodd" d="M222.372 1.42495C88.5136 13.2582 -10.4073 131.365 1.42593 265.223C13.2592 399.081 131.366 498.002 265.224 486.169C399.082 474.336 498.003 356.229 486.17 222.371C474.337 88.5126 356.23 -10.4083 222.372 1.42495ZM7.26622 264.707C-4.28189 134.074 92.2554 18.8134 222.888 7.26524C353.521 -4.28287 468.782 92.2544 480.33 222.887C491.878 353.52 395.341 468.781 264.708 480.329C134.075 491.877 18.8143 395.34 7.26622 264.707Z" fill="#FAFAFA"/>
</svg>
