<svg width="64" height="64" viewBox="0 0 64 64" fill="none" xmlns="http://www.w3.org/2000/svg">
<rect width="64" height="64" rx="12" fill="#FAFAFA"/>
<path fill-rule="evenodd" clip-rule="evenodd" d="M31.5584 51.7619C32.2017 51.5868 32.5234 51.4993 32.7875 51.6208C32.8359 51.6431 32.882 51.6701 32.9251 51.7015C33.1608 51.873 33.247 52.1996 33.4194 52.8528C33.7067 53.9414 33.8504 54.4858 34.2432 54.7716C34.3151 54.8239 34.3919 54.8689 34.4725 54.906C34.9127 55.1085 35.4489 54.9626 36.5211 54.6709L38.0411 54.2574C39.2711 53.9228 39.8862 53.7555 40.1659 53.2636C40.4457 52.7716 40.2809 52.1472 39.9513 50.8983L39.8549 50.5333C39.6897 49.9071 39.607 49.594 39.7175 49.3322C39.828 49.0704 40.1239 48.9064 40.7158 48.5786C41.3759 48.2129 42.0038 47.8185 42.5995 47.3953C44.6975 45.878 46.3543 44.1022 47.57 42.0678C48.8111 39.9887 49.573 37.7181 49.8554 35.2561C50.1727 32.7847 49.9678 30.1714 49.2406 27.4162L48.961 26.3565C48.2525 23.6719 47.1569 21.3577 45.6744 19.4137C44.2266 17.4603 42.4627 15.9337 40.3825 14.8338C38.3371 13.7244 36.0371 13.0629 33.4823 12.8493C32.5936 12.7706 31.6842 12.7541 30.7541 12.7997C30.0662 12.8334 29.7223 12.8503 29.4912 12.6791C29.2601 12.5079 29.1756 12.1876 29.0065 11.547L28.9418 11.3018C28.6122 10.053 28.4474 9.42856 27.9629 9.14455C27.4784 8.86053 26.8634 9.02785 25.6333 9.36248L24.1134 9.77597C23.0411 10.0677 22.505 10.2135 22.2235 10.6124C22.1719 10.6854 22.1276 10.7634 22.0911 10.8452C21.8916 11.2921 22.0353 11.8365 22.3226 12.9251C22.495 13.5783 22.5812 13.9049 22.4615 14.1731C22.4396 14.2222 22.413 14.269 22.3821 14.3128C22.2131 14.5521 21.8915 14.6396 21.2481 14.8146L18.5344 15.5529C16.0743 16.2221 14.8442 16.5568 14.2847 17.5406C13.7253 18.5245 14.0549 19.7733 14.714 22.271L21.7058 48.7634C22.3649 51.2611 22.6945 52.5099 23.6636 53.078C24.6326 53.646 25.8627 53.3114 28.3228 52.6421L31.5584 51.7619ZM33.4141 43.5338L29.3435 44.6411L23.3586 21.9637L27.4292 20.8563C29.0296 20.421 30.5387 20.2754 31.9565 20.4198C33.3742 20.5641 34.6392 20.9771 35.7514 21.6589C36.889 22.2959 37.8564 23.2064 38.6536 24.3903C39.4509 25.5742 40.0639 26.9786 40.4927 28.6034L40.7724 29.6631C41.2198 31.3586 41.3992 32.9567 41.3105 34.4574C41.2218 35.958 40.851 37.3082 40.1981 38.508C39.5707 39.6631 38.6833 40.6806 37.5358 41.5606C36.4232 42.4312 35.0493 43.0889 33.4141 43.5338Z" fill="#D36700"/>
</svg>
