<svg width="210" height="82" viewBox="0 0 210 82" fill="none" xmlns="http://www.w3.org/2000/svg">
<path d="M107.928 8.97341C140.236 11.9254 172.543 14.8773 204.851 17.8292C205.376 17.8773 205.907 17.9098 206.431 17.9737C208.936 18.2944 210.201 19.7647 209.974 22.2977C208.293 40.9668 206.592 59.6341 204.872 78.2997C204.63 80.9551 203.121 82.16 200.484 81.983C200.024 81.953 199.563 81.8989 199.101 81.8566C134.422 75.947 69.7399 70.037 5.06138 64.1273C4.40542 64.0674 3.73796 64.0463 3.09137 63.9273C1.15198 63.5663 -0.00878354 62.1374 5.0059e-05 60.1601C0.0024235 59.6967 0.0723342 59.2355 0.114223 58.7758C1.76088 40.7029 3.40754 22.6301 5.05419 4.55729C5.40339 0.724745 6.61092 -0.283897 10.4202 0.064155C42.9254 3.03415 75.4306 6.00414 107.932 8.97377L107.928 8.97341ZM107.647 13.6314C75.7384 10.716 43.8299 7.8005 11.9174 4.88466C9.46351 4.66045 9.73376 4.44936 9.5052 6.9142C7.97089 23.6665 6.44448 40.4195 4.92598 57.1733C4.70101 59.6425 4.46906 59.3895 6.92295 59.6137C70.6764 65.4428 134.431 71.264 198.18 77.0889C200.512 77.3019 200.266 77.5032 200.485 75.1454C202.026 58.3257 203.55 41.5085 205.082 24.6881C205.119 24.2918 205.27 23.8541 205.15 23.5114C205.01 23.119 204.695 22.6465 204.337 22.5099C203.802 22.3012 203.167 22.3551 202.575 22.301C170.927 19.4093 139.283 16.518 107.635 13.6264L107.647 13.6314Z" fill="#D36700"/>
<path d="M83.7254 39.0731C83.4192 42.4341 83.1324 45.8007 82.7985 49.1591C82.5938 51.1865 82.4274 51.3072 80.4797 51.1692C79.296 51.085 78.1124 50.9129 76.9301 50.8569C75.6642 50.8012 75.2064 50.2278 75.3421 48.9574C75.694 45.5767 75.7969 42.1292 76.2863 38.7691C76.3811 38.1224 76.6909 36.2964 75.4944 36.7465C74.7974 37.0065 74.3112 37.9252 73.8138 38.4433C73.0173 39.2697 72.2284 40.1007 71.3992 40.8922C70.0382 42.1865 69.2978 42.1349 68.1705 40.6012C67.4079 39.5684 66.7097 38.4855 66.0025 37.4138C65.7505 37.0311 64.9692 35.2853 64.2473 35.6869C63.8905 35.8861 63.8641 36.9627 63.8137 37.2978C63.6555 38.3783 63.5601 39.4686 63.4691 40.5553C63.3217 42.3481 63.2533 44.1482 63.09 45.9397C62.7019 50.2003 62.7133 49.5059 59.102 49.2159C55.653 48.9368 55.6555 48.909 55.9683 45.4328C56.5208 39.3689 57.0657 33.3003 57.6261 27.2371C57.8948 24.3324 57.9166 24.5741 60.6907 24.5199C64.2709 24.4514 66.7244 25.6427 67.9294 29.1656C68.2846 30.2091 69.0432 31.1097 69.587 32.0945C70.8218 34.3294 70.6743 33.8923 72.1229 32.2503C73.5186 30.6634 74.9146 29.0725 76.2511 27.4363C77.0314 26.4805 77.8978 26.0242 79.1644 26.2478C80.3289 26.4541 81.5306 26.472 82.7107 26.5958C84.625 26.7947 84.8034 26.9788 84.6365 28.9857C84.3619 32.3495 84.0316 35.7122 83.7254 39.0731Z" fill="#D36700"/>
<path d="M138.456 44.0546C138.768 40.6223 139.061 37.1922 139.401 33.7625C139.575 32.0319 139.817 31.8662 141.521 31.966C144.221 32.1275 146.29 33.3569 147.728 35.6542C148.862 37.4603 150.001 39.2628 151.143 41.0656C151.67 41.893 152.643 44.4997 153.826 44.5039C154.671 44.5091 154.523 41.4543 154.585 40.7687C154.752 38.9336 154.919 37.0986 155.098 35.2686C155.292 33.3201 155.372 33.2715 157.279 33.4138C158.269 33.4882 159.251 33.634 160.24 33.6723C161.55 33.7201 161.94 34.3911 161.804 35.6176C161.584 37.5917 161.435 39.5762 161.255 41.5539C160.816 46.3694 160.382 51.1852 159.939 56.0003C159.729 58.2991 159.629 58.2659 157.444 58.2421C155.78 58.2259 154.411 57.5014 153.348 56.2293C152.022 54.6376 151.071 52.6644 149.93 50.9296C148.684 49.0334 147.384 47.1682 146.036 45.3426C145.742 44.9441 145.425 44.9671 145.212 45.3832C145.057 45.6847 145.029 46.0739 144.994 46.4104C144.706 49.3094 144.41 52.2116 144.205 55.1182C144.11 56.4683 143.557 57.0252 142.201 56.8254C141.222 56.68 140.223 56.6646 139.243 56.5391C137.58 56.3312 137.382 56.0973 137.53 54.3484C137.819 50.914 138.147 47.4872 138.459 44.0549L138.456 44.0546Z" fill="#D36700"/>
<path d="M188.091 52.7016C187.965 54.0848 187.839 55.468 187.712 56.8552C187.607 58.0045 187.113 58.8386 185.972 59.2538C181.364 60.9309 176.734 61.3311 172.042 59.6075C168.611 58.3429 166.44 55.9266 165.694 52.3537C164.951 48.789 165.146 45.2501 166.493 41.8324C167.727 38.6961 169.979 36.552 173.148 35.4789C177.987 33.8429 182.648 34.7723 187.193 36.7062C187.477 36.828 187.946 37.1866 187.912 37.2994C187.487 38.6393 187.065 39.9915 186.468 41.2557C186.033 42.1751 185.209 41.9119 184.402 41.6264C183.163 41.1855 181.899 40.8062 180.619 40.5055C177.32 39.7245 174.477 41.0953 173.659 44.3455C173.092 46.5876 172.982 49.0712 173.271 51.3675C173.618 54.1607 176.534 55.734 179.249 55.1987C181.054 54.8402 180.432 53.4125 180.635 52.364C180.866 51.1783 179.859 51.47 179.229 51.2565C178.468 50.9991 177.171 50.6728 177.121 50.2566C176.973 48.9963 177.227 47.6567 177.544 46.4028C177.613 46.1254 178.581 45.9062 179.12 45.9434C181.69 46.1143 184.251 46.3843 186.812 46.6182C188.12 46.7378 188.656 47.4181 188.474 48.7523C188.295 50.0627 188.222 51.3869 188.098 52.7063L188.091 52.7016Z" fill="#D36700"/>
<path d="M112.098 29.2774C114.86 29.5297 117.617 29.8416 120.379 30.01C122.408 30.1314 122.142 32.3451 121.912 33.8667C121.625 35.7507 120.143 35.4874 118.573 35.352C116.391 35.1606 115.204 36.1284 115.01 38.2554C114.596 42.8013 114.193 47.3484 113.763 51.8929C113.551 54.1354 113.497 54.1624 111.19 53.9797C110.399 53.9154 109.613 53.8396 108.823 53.7634C106.149 53.5071 106.135 53.4898 106.389 50.7075C106.821 45.9634 107.253 41.2193 107.685 36.4752C107.876 34.3786 107.868 34.3778 105.719 34.1735C104.447 34.0533 102.69 34.0965 101.684 33.2013C101.636 33.157 101.589 33.1127 101.558 33.0579C101.517 32.9822 101.509 32.8936 101.509 32.8057C101.47 31.5313 101.681 30.2237 102.366 29.1275C102.418 29.0442 102.477 28.9617 102.557 28.9091C102.663 28.8429 102.796 28.831 102.92 28.8263C104.397 28.7455 105.801 28.6381 107.276 28.7688C108.885 28.9078 110.49 29.1304 112.098 29.2774Z" fill="#D36700"/>
<path d="M21.5478 33.2201C21.8544 29.8552 22.1448 26.4928 22.4751 23.1301C22.6563 21.2724 22.8306 21.1524 24.7259 21.2976C25.9128 21.3901 27.0918 21.5698 28.2801 21.6024C29.6751 21.6419 30.0746 22.2859 29.936 23.632C29.464 28.2446 29.0713 32.8604 28.6585 37.4784C28.405 40.2607 28.5386 40.4128 31.2683 40.6702C33.1094 40.8424 34.9515 41.0467 36.7937 41.1631C38.0574 41.2426 38.5507 41.8631 38.455 43.0892C38.0708 48.0495 38.1782 47.2641 34.1997 46.9365C30.3161 46.6177 26.4368 46.2512 22.5546 45.8725C20.5918 45.6812 20.4492 45.4963 20.6186 43.5056C20.9112 40.0756 21.2394 36.6487 21.5521 33.2165L21.5478 33.2201Z" fill="#D36700"/>
<path d="M125.379 42.8304C125.684 39.4775 125.982 36.1198 126.296 32.7675C126.492 30.6994 126.582 30.6317 128.56 30.7844C129.743 30.8765 130.922 31.0522 132.106 31.0925C133.513 31.137 133.892 31.8311 133.76 33.1458C133.331 37.4186 132.969 41.6976 132.575 45.9737C132.329 48.6727 132.052 51.3649 131.85 54.0639C131.757 55.3023 131.237 55.8542 129.964 55.698C128.593 55.5287 127.213 55.4146 125.831 55.3124C124.664 55.2257 124.265 54.6617 124.388 53.4861C124.759 49.9392 125.051 46.3852 125.375 42.8301L125.379 42.8304Z" fill="#D36700"/>
<path d="M96.8153 40.2412C96.5149 43.5387 96.2223 46.8369 95.9136 50.1377C95.697 52.4278 95.5805 52.569 93.4094 52.3466C87.2662 51.7254 88.2785 52.6851 88.7454 46.8172C89.2112 41.0051 89.7794 35.2064 90.3281 29.4019C90.5227 27.3536 90.5759 27.3384 92.6562 27.5085C93.8428 27.605 95.0224 27.7767 96.2101 27.8173C97.5285 27.8658 97.9018 28.5353 97.7787 29.7549C97.4325 33.2481 97.1338 36.7455 96.8149 40.2452L96.8153 40.2412Z" fill="#D36700"/>
<path d="M51.101 36.0562C50.7825 39.5518 50.4209 43.0396 50.1656 46.541C50.0633 47.9264 49.4699 48.4037 48.1433 48.2265C46.8361 48.0551 45.5142 47.9583 44.2008 47.8543C43.0376 47.764 42.6014 47.1726 42.7068 46.0154C43.3654 38.9621 44.0082 31.9073 44.6352 24.8511C44.75 23.5908 45.352 23.1063 46.5992 23.2802C47.6456 23.4277 48.7007 23.4802 49.7557 23.5766C52.2049 23.8084 52.2128 23.8091 51.9882 26.3622C51.7057 29.5934 51.3996 32.8224 51.1053 36.0526L51.1013 36.0522L51.101 36.0562Z" fill="#D36700"/>
</svg>
