<svg width="420" height="420" viewBox="0 0 420 420" fill="none" xmlns="http://www.w3.org/2000/svg">
<path d="M189.2 418.9C75.6045 408.026 -10.9959 306.186 1.13511 188.384C13.1177 72.0769 117.27 -10.6296 231.574 1.10937C344.625 12.7176 431.217 114.079 418.816 232.096C406.626 348.06 302.86 430.569 189.206 418.901L189.2 418.9ZM230.132 6.19431C116.146 -4.6251 18.3098 78.4044 6.48295 187.959C-5.59382 299.781 75.0418 402.01 189.131 413.659C303.639 425.35 402.122 341.49 413.61 231.281C425.24 119.775 344.564 17.8963 230.138 6.19492L230.132 6.19431Z" fill="#7E9D00"/>
<path d="M196.278 348.903C120.891 341.818 63.207 274.343 71.0694 196.074C78.93 117.824 148.74 63.5472 223.881 71.0544C299.156 78.5751 357.015 145.85 348.881 224.415C340.816 302.291 271.248 356.685 196.272 348.902L196.278 348.903ZM213.045 75.6285C211.058 75.636 208.695 75.6248 206.339 75.6641C204.592 75.6954 202.845 75.733 201.112 75.8713C165.822 78.6808 135.932 92.8493 111.582 118.577C103.283 127.346 96.4358 137.184 90.8427 147.886C89.188 151.05 89.9322 152.242 93.4093 152.283C97.6177 152.334 101.825 152.398 106.036 152.419C115.991 152.464 125.951 152.466 135.905 152.518C147.404 152.579 158.897 152.703 170.398 152.74C174.263 152.751 177.391 151.305 179.263 147.703C179.831 146.611 180.516 145.586 181.113 144.509C188.725 130.791 196.33 117.073 203.93 103.348C208.255 95.5439 212.615 87.7621 216.874 79.9269C218.476 76.9876 217.924 76.1069 214.648 75.7939C214.236 75.753 213.83 75.7127 213.044 75.6346L213.045 75.6285ZM196.749 344.293C204.951 344.176 213.178 344.447 221.347 343.855C238.41 342.619 254.614 337.982 269.907 330.268C273.135 328.639 273.205 327.491 270.346 325.226C269.702 324.715 269.022 324.25 268.363 323.763C254.399 313.478 240.435 303.193 226.463 292.913C220.762 288.714 214.975 284.625 209.359 280.317C205.335 277.229 201.263 276.613 196.789 279.112C196.165 279.46 195.482 279.708 194.826 280.01C172.963 290.201 151.1 300.392 129.243 310.589C124.545 312.78 124.438 313.794 128.594 316.939C148.805 332.241 171.563 341.083 196.742 344.298L196.749 344.293ZM343.869 222.837C344.032 218.637 344.493 213.802 344.339 208.987C344.14 202.739 343.588 196.494 342.915 190.28C342.511 186.539 341.304 186.189 338.078 188.371C337.566 188.718 337.048 189.051 336.547 189.411C316.675 203.681 296.851 218.023 276.897 232.173C272.498 235.294 270.939 239.057 271.609 244.302C273.969 262.711 276.159 281.147 278.418 299.57C279.193 305.881 279.969 312.193 280.782 318.495C281.34 322.81 282.435 323.279 286.078 320.784C287.942 319.504 289.802 318.211 291.579 316.817C321.948 292.96 339.247 261.806 343.875 222.843L343.869 222.837ZM233.888 77.7548C228.192 77.0027 227.69 77.6172 229.261 82.486C229.294 82.5825 229.354 82.6692 229.388 82.7657C233.548 95.8582 237.714 108.951 241.868 122.043C245.22 132.597 248.583 143.151 251.889 153.719C253.185 157.852 255.564 160.771 260.008 161.635C271.094 163.791 282.173 165.948 293.259 168.104C300.917 169.598 308.575 171.091 316.234 172.578C322.985 173.888 329.733 175.242 336.498 176.479C338.906 176.917 339.892 175.916 339.269 173.575C338.374 170.214 337.347 166.87 336.113 163.612C324.728 133.49 305.195 110.165 277.458 93.7933C263.719 85.6791 248.893 80.4374 233.888 77.7548ZM76.3651 196.799C75.2669 205.917 75.3774 215.049 76.3597 224.15C79.0669 249.12 88.0743 271.635 103.279 291.612C106.506 295.85 110.142 299.794 113.754 303.729C116.693 306.934 117.901 306.582 119.307 302.362C127.158 278.734 134.938 255.079 142.868 231.471C144.559 226.448 143.764 222.457 140.069 218.544C124.915 202.497 109.939 186.281 94.8871 170.138C92.5766 167.661 90.3011 165.144 87.8874 162.768C86.1186 161.021 85.0275 161.323 83.9517 163.594C83.6915 164.152 83.4609 164.725 83.2603 165.308C79.7492 175.539 77.2583 185.997 76.3651 196.799Z" fill="#7E9D00"/>
<path d="M60.447 289.568C61.0936 289.806 62.3319 290.084 63.37 290.69C64.6774 291.46 65.1594 290.918 65.6558 289.794C66.8101 287.17 67.9772 284.541 69.2617 281.98C70.6156 279.283 71.7454 279.153 73.3653 281.649C78.1445 289.01 77.5788 287.209 74.1503 293.612C73.5248 294.785 72.6738 295.855 72.1984 297.081C71.9137 297.823 71.8898 298.876 72.1968 299.596C73.2791 302.131 73.622 302.178 75.9689 300.728C77.5425 299.754 79.1205 298.799 80.667 297.786C82.0883 296.846 83.1539 297.176 84.015 298.565C88.5975 305.969 88.5965 304.23 82.2118 308.346C75.9137 312.402 69.524 316.319 63.1558 320.269C59.9287 322.27 59.8445 322.243 57.8986 319.157C55.492 315.335 53.0725 311.518 50.7446 307.654C49.9026 306.26 49.1251 304.78 48.6142 303.239C45.6757 294.465 53.5127 288.972 60.4655 289.57L60.447 289.568ZM67.756 305.507C66.6035 303.678 65.6218 301.88 64.3993 300.256C63.1276 298.564 61.7476 298.527 59.4933 299.793C57.502 300.912 56.4984 302.644 57.308 304.301C58.2406 306.219 59.5577 307.952 60.7121 309.762C62.2238 308.975 63.7342 308.199 65.2348 307.398C65.7784 307.111 66.3018 306.778 66.8023 306.424C67.11 306.2 67.3575 305.896 67.756 305.507Z" fill="#7E9D00"/>
<path d="M39.2987 205.431C38.981 205.381 38.6572 205.33 38.3395 205.28C34.1252 204.6 30.0588 204.494 25.8121 204.017C23.2221 203.728 22.7001 203.174 22.9794 200.674C23.565 195.467 24.2181 190.266 25.0237 185.093C25.2569 183.62 25.9264 182.128 26.7244 180.841C29.7716 175.903 36.147 175.692 39.5648 180.391C40.2744 181.368 40.6657 182.176 41.5249 180.585C44.4195 175.247 53.1767 176.546 56.058 182.085C57.4439 184.75 57.6969 187.575 57.3907 190.469C56.9093 195.066 56.3657 199.663 55.8167 204.253C55.4987 206.891 55.1769 207.194 52.4757 206.963C48.07 206.588 43.6752 206.102 39.3049 205.432L39.2987 205.431ZM50.5387 192.98C50.7928 190.422 50.2812 187.702 47.3808 187.227C45.2497 186.879 43.336 188.34 43.0537 190.995C42.4408 196.727 41.5056 195.709 47.4429 196.597C48.6166 196.776 49.7545 196.69 50.0947 195.389C50.2848 194.663 50.4538 193.835 50.5387 192.98ZM37.6775 192.33C37.9076 189.639 36.8228 186.067 33.5102 186.93C31.6758 187.406 29.8 192.857 30.9463 194.375C31.0065 194.455 31.0809 194.58 31.1547 194.588C32.8709 194.802 34.6088 195.235 36.2886 195.067C37.0406 194.992 37.5512 193.789 37.6775 192.33Z" fill="#7E9D00"/>
<path d="M52.4911 249.349C57.2962 249.64 60.7896 252.204 62.6636 256.326C65.0729 261.62 66.8384 267.21 68.8324 272.686C69.5112 274.535 68.3301 275.244 66.8078 275.763C60.7002 277.839 54.6013 279.953 48.503 282.06C45.9837 282.934 43.4889 283.872 40.9555 284.701C39.6021 285.144 38.157 285.199 37.6423 283.509C35.7991 277.452 33.8036 271.429 32.3609 265.275C31.3723 261.048 33.2361 257.34 36.5206 254.636C41.1224 250.852 46.5131 249.121 52.4844 249.354L52.4911 249.349ZM52.2088 259.374C43.498 258.546 38.2668 264.98 41.4828 272.459C41.9769 273.607 42.452 273.822 43.4994 273.46C48.3194 271.791 53.1534 270.166 57.9537 268.445C58.4746 268.26 59.1692 267.578 59.1849 267.108C59.3241 263.582 55.7617 259.714 52.2088 259.374Z" fill="#7E9D00"/>
<path d="M302.999 368.39C301.997 368.29 301.005 368.092 300.049 367.786C293.858 365.83 285.525 353.888 288.527 346.22C289.783 343.016 291.851 340.564 294.531 338.626C298.269 335.924 302.159 333.429 305.951 330.806C307.65 329.628 308.915 329.89 310.065 331.619C315.111 339.223 320.198 346.801 325.271 354.384C326.314 355.946 326.167 357.174 324.496 358.249C320.44 360.852 316.579 363.797 312.357 366.078C312.226 366.146 312.095 366.214 311.964 366.281C311.017 366.758 310.024 367.138 309.017 367.466C308.106 367.767 307.316 368.16 306.358 368.307C305.243 368.47 304.112 368.494 302.993 368.389L302.999 368.39ZM306.89 359.332C307.087 359.345 307.285 359.346 307.484 359.341C308.381 359.312 309.184 359.156 309.927 358.677C310.861 358.081 311.988 357.671 312.985 357.187C313.025 357.166 313.07 357.146 313.11 357.125C314.322 356.543 314.443 355.761 313.713 354.676C310.841 350.417 308.029 346.114 305.091 341.898C304.803 341.484 303.644 341.22 303.168 341.452C297.615 344.129 296.308 348.545 299.482 353.877C300.259 355.184 301.183 356.499 302.327 357.475C303.602 358.565 305.223 359.241 306.896 359.333L306.89 359.332Z" fill="#7E9D00"/>
<path d="M345.059 134.654C345.001 133.798 345.122 132.891 345.462 131.9C346.586 128.652 347.77 125.417 348.935 122.186C349.629 120.255 350.395 118.351 351.06 116.411C351.209 115.973 351.07 115.431 351.064 114.934C350.592 115.061 350.056 115.082 349.659 115.328C346.497 117.243 343.371 119.218 340.209 121.133C337.363 122.856 336.929 122.726 335.133 119.821C334.806 119.298 334.467 118.78 334.16 118.247C332.735 115.783 332.813 115.313 335.226 113.82C342.732 109.164 350.254 104.527 357.792 99.9237C360.23 98.4335 360.696 98.6723 362.33 100.84C364.288 103.438 364.763 105.9 363.249 109.022C361.376 112.884 360.036 117.005 358.53 121.04C358.227 121.842 358.194 122.739 358.04 123.599C358.858 123.234 359.726 122.935 360.491 122.483C363.405 120.755 366.32 119.02 369.165 117.179C370.87 116.075 371.871 116.547 372.938 118.119C376.265 123.038 376.264 123.18 371.247 126.265C364.593 130.348 357.965 134.477 351.284 138.514C350.162 139.191 348.85 140.842 347.501 139.423C346.074 137.922 345.183 136.399 345.058 134.66L345.059 134.654Z" fill="#7E9D00"/>
<path d="M107.665 331.912C107.34 338.803 96.8314 350.202 87.693 348.493C80.6132 347.176 75.9316 342.706 73.2496 336.348C70.8087 330.561 72.5511 325.201 76.6628 320.729C78.6523 318.567 80.9559 316.554 83.4595 315.027C87.7664 312.4 92.3378 312.295 96.9591 314.623C103.755 318.049 108.354 325.349 107.666 331.906L107.665 331.912ZM98.732 328.51C98.7947 326.504 97.6569 324.652 95.7163 323.261C93.7757 321.87 91.6257 321.775 89.6147 322.904C86.4409 324.681 83.8144 327.133 82.0473 330.367C80.9394 332.399 80.9284 334.509 82.2844 336.475C83.7332 338.569 85.7007 339.69 88.3076 339.433C91.9492 339.068 98.2804 332.681 98.7308 328.522L98.732 328.51Z" fill="#7E9D00"/>
<path d="M122.552 45.3243C123.466 45.3716 124.384 45.6863 125.499 46.269C129.574 48.4062 133.627 50.5908 137.724 52.6991C138.349 53.022 139.672 53.0106 139.951 52.2001C140.177 51.5519 138.984 49.9494 138.712 49.3698C137.596 46.9863 136.428 44.6288 135.338 42.2293C134.162 39.6412 134.37 39.1092 136.761 37.844C141.757 35.2109 141.794 35.2145 144.196 40.2715C147.536 47.3155 150.915 54.3385 154.183 61.4188C154.811 62.7789 156.423 64.4851 154.541 65.8071C152.706 67.1026 150.69 68.6595 148.066 67.3371C143.386 64.9784 138.667 62.6904 133.964 60.3729C129.699 58.2727 131.927 62.5735 132.86 64.5538C133.886 66.7172 134.918 68.8812 135.926 71.0489C137.208 73.8214 137.057 74.2722 134.387 75.5468C128.914 78.1637 129.578 78.2296 127.071 72.9822C123.717 65.9493 120.39 58.9004 117.069 51.8521C115.311 48.1257 115.396 47.892 119.213 46.1352C120.501 45.5428 121.528 45.266 122.552 45.3182L122.552 45.3243Z" fill="#7E9D00"/>
<path d="M307.379 88.7503C302.43 87.7806 297.401 85.2506 293.469 80.7309C290.094 76.8502 288.801 72.3691 290.93 67.6194C292.5 64.1242 294.457 60.5993 297.031 57.8062C302.448 51.9302 310.09 51.2797 317.171 55.8888C320.045 57.7576 322.506 60.3429 324.901 62.8472C326.666 64.6928 326.379 65.5833 324.32 67.0677C320.984 69.4869 320.802 69.4379 318.087 66.3492C317.078 65.1996 315.993 64.0673 314.781 63.1521C311.871 60.9568 308.038 60.8803 305.502 63.4846C303.338 65.71 301.524 68.4171 300.119 71.1959C298.604 74.1997 299.888 77.2642 302.778 79.1533C305.231 80.763 305.76 80.5548 307.483 78.2049C308.503 76.8098 308.089 76.2285 306.869 75.3311C304.516 73.5947 304.567 73.0844 306.639 70.3408C308.304 68.1343 308.669 68.0836 311.111 69.7978C313.373 71.3885 315.642 72.9737 317.882 74.5995C320.139 76.2394 320.234 76.7146 318.62 79.0939C316.897 81.6362 315.104 84.1342 313.316 86.639C311.406 89.3179 311.388 89.31 307.378 88.7565L307.379 88.7503Z" fill="#7E9D00"/>
<path d="M360.005 277.157C360.51 274.575 361.714 272.018 362.756 269.775C363.607 267.947 363.142 267.193 361.458 266.597C360.013 266.087 358.596 265.487 357.193 264.863C354.703 263.759 354.435 263.335 355.412 260.936C358.396 253.57 357.485 254.498 363.858 257.049C370.978 259.905 378.054 262.881 385.132 265.844C388.456 267.236 388.493 267.364 387.191 270.544C385.601 274.428 384.012 278.306 382.362 282.166C381.804 283.477 381.201 284.801 380.413 285.984C377.271 290.689 373.207 291.992 367.908 290.119C364.329 288.857 361.243 285.812 360.136 282.156C359.64 280.524 359.678 278.826 360.007 277.145L360.005 277.157ZM372.525 280.183C375.587 280.475 376.202 278.779 377.606 275.074C378.591 272.465 376.111 272.951 375.042 272.28C374.014 271.632 372.793 271.306 371.655 270.826C370.655 270.404 369.879 270.463 369.504 271.68C369.294 272.361 368.957 273.005 368.692 273.674C367.257 277.25 368.765 279.809 372.519 280.182L372.525 280.183Z" fill="#7E9D00"/>
<path d="M55.8013 243.01C53.0009 243.403 49.7865 241.779 47.1791 241.167C42.7336 240.129 38.2826 239.084 33.8371 238.047C31.642 237.531 29.4677 236.868 27.2444 236.51C25.3511 236.204 24.647 235.172 24.5059 233.407C24.3004 230.853 24.1016 228.294 23.7204 225.76C23.4922 224.247 24.0588 223.415 25.3488 222.86C34.3929 218.959 43.4278 215.026 52.4972 211.183C54.6417 210.272 55.131 210.656 55.568 213.003C55.7388 213.907 55.8462 214.825 55.9101 215.744C56.1573 219.19 56.0855 219.536 52.815 220.789C51.0796 221.455 50.7017 222.386 50.9355 224.03C51.2896 226.462 51.6235 228.91 51.7466 231.356C51.8243 232.885 52.4298 233.411 53.8697 233.784C56.871 234.554 58.3225 235.81 58.0178 239.064C57.8725 240.652 58.4068 242.331 56.5048 242.863C56.2751 242.927 56.0342 242.978 55.8013 243.01ZM44.4508 231.65C44.5356 231.609 44.6216 231.555 44.7021 231.495C46.2129 230.403 45.1623 227.362 45.0699 225.856C44.9849 224.525 44.3808 224.297 43.2524 224.788C40.1588 226.132 37.0554 227.451 33.9674 228.802C33.7076 228.919 33.4982 229.153 33.2636 229.328C33.5341 229.541 33.7788 229.888 34.083 229.95C35.9198 230.324 37.7584 230.681 39.6038 231.032C40.9618 231.291 43.0583 232.362 44.4508 231.65Z" fill="#7E9D00"/>
<path d="M177.174 393.978C174.756 393.521 172.345 393.051 169.926 392.606C168.512 392.348 167.839 391.499 167.681 390.086C166.606 380.423 165.474 370.767 164.443 361.096C164.187 358.68 164.821 358.166 167.23 358.405C168.244 358.505 169.246 358.779 170.262 358.923C172.557 359.251 173.795 360.591 173.712 362.861C173.618 365.311 174.91 365.979 177.046 366.222C179.279 366.475 181.486 366.999 183.691 367.479C185.088 367.785 185.904 367.382 186.624 366.062C187.261 364.896 188.348 363.197 189.302 363.155C191.465 363.06 193.781 363.544 195.817 364.349C197.525 365.022 196.31 366.509 195.754 367.479C192.664 372.909 189.498 378.295 186.349 383.694C184.801 386.347 183.247 388.999 181.705 391.659C180.652 393.467 179.142 394.242 177.173 393.984L177.174 393.978ZM177.098 372.313C174.907 372.014 174.668 372.109 174.814 373.88C175.087 377.136 175.49 380.386 175.887 383.636C175.93 384.007 176.245 384.342 176.433 384.696C176.685 384.405 176.997 384.144 177.172 383.813C178.168 381.913 179.128 379.996 180.111 378.089C181.842 374.746 180.837 372.823 177.098 372.319L177.098 372.313Z" fill="#7E9D00"/>
<path d="M338.727 84.8897C337.54 86.0384 336.276 87.0802 335.295 88.3363C335.06 88.6359 335.608 89.8018 336.064 90.3376C337.532 92.0482 339.17 93.6142 340.658 95.3081C342.353 97.2399 342.208 97.5173 339.926 99.8116C338.534 101.207 337.322 101.726 335.808 100.03C334.307 98.3407 332.716 96.7421 331.181 95.0808C330.138 93.9527 329.159 93.3773 328.007 94.9828C327.597 95.5506 326.983 95.9863 326.428 96.4466C325.489 97.2164 325.59 97.8847 326.412 98.73C328.564 100.931 330.578 103.267 332.765 105.428C334.393 107.03 333.861 108.206 332.45 109.538C330.019 111.83 329.173 112.106 327.592 110.465C323.463 106.18 319.451 101.783 315.328 97.4925C313.877 95.9823 313.893 94.7606 315.418 93.3412C322.024 87.1858 328.574 80.969 335.185 74.8203C337.243 72.9074 337.621 72.976 339.673 75.1233C343.568 79.2047 347.455 83.2977 351.322 87.4074C353.057 89.25 352.977 90.1176 351.018 92.0341C348.599 94.3955 348.04 94.458 346.019 92.382C344.088 90.3957 342.232 88.3362 340.328 86.3278C339.913 85.8891 339.416 85.5169 338.719 84.9075L338.727 84.8897Z" fill="#7E9D00"/>
<path d="M211.719 27.4442C211.952 29.4108 210.917 30.1463 208.822 30.1244C206.261 30.0998 203.704 30.4171 201.144 30.4546C199.224 30.4812 197.812 30.7632 198.524 33.2183C198.635 33.5957 198.573 34.0365 198.532 34.4485C198.384 36.0606 198.979 36.6289 200.68 36.4377C203.02 36.1796 205.39 36.1232 207.743 36.1768C210.132 36.2341 210.476 36.7712 210.446 39.5686C210.42 42.3974 210.144 42.7364 207.671 42.8882C205.318 43.0331 202.966 43.2218 200.608 43.2794C199.233 43.3167 198.773 43.8857 199.022 45.1896C199.115 45.6893 199.217 46.2272 199.131 46.7216C198.732 49.0477 200.144 49.2625 201.872 49.1733C204.43 49.0362 206.99 48.8063 209.548 48.7934C212.627 48.7825 212.908 49.1395 212.932 52.1533C212.961 55.5403 212.718 55.8639 209.699 56.0173C204.067 56.3085 198.433 56.5499 192.802 56.835C190.843 56.9323 189.774 56.3293 189.685 54.0976C189.381 46.1071 188.933 38.121 188.542 30.128C188.51 29.5102 188.528 28.8972 188.484 28.2781C188.179 24.038 188.39 23.7919 192.733 23.6086C197.65 23.4015 202.569 23.232 207.484 23.0372C211.408 22.8868 211.94 23.4053 211.714 27.4313L211.719 27.4442Z" fill="#7E9D00"/>
<path d="M78.8111 128.889C78.5141 129.506 78.2257 130.16 77.89 130.791C75.2888 135.674 72.6988 140.57 70.0565 145.43C68.7123 147.905 68.2295 148.08 65.7052 146.755C57.8139 142.612 49.9466 138.416 42.0934 134.202C39.8137 132.976 39.6167 132.335 40.8129 130.039C43.4716 124.951 46.1771 119.892 48.9244 114.849C50.2219 112.47 50.8701 112.379 53.6341 113.852C56.2918 115.271 56.5109 115.814 55.2005 118.385C53.9903 120.761 52.8378 123.18 51.4173 125.423C50.3356 127.129 50.797 127.982 52.449 128.655C53.0156 128.885 53.5553 129.2 54.0906 129.495C55.0673 130.033 55.7302 129.919 56.2814 128.806C57.3345 126.7 58.4884 124.641 59.6651 122.604C60.9547 120.366 61.5101 120.272 64.118 121.63C66.4954 122.872 66.771 123.471 65.6841 125.667C64.6832 127.685 63.6165 129.677 62.468 131.619C61.662 132.985 61.8229 133.864 63.3458 134.463C63.9131 134.687 64.4227 135.054 64.9353 135.391C66.2938 136.271 67.0904 135.809 67.7913 134.439C69.1808 131.695 70.7116 129.029 72.1656 126.323C73.0335 124.708 74.3485 124.9 75.5729 125.631C76.8735 126.406 78.8559 126.627 78.805 128.889L78.8111 128.889Z" fill="#7E9D00"/>
<path d="M350.101 332.379C350.02 333.817 349.189 334.939 348.013 336.158C344.673 339.607 341.315 343.049 337.918 346.449C336.058 348.308 334.975 348.219 332.963 346.293C331.025 344.436 330.957 343.374 332.834 341.343C334.648 339.388 336.513 337.48 338.44 335.635C339.524 334.6 339.882 333.736 338.528 332.688C338.044 332.317 337.598 331.876 337.216 331.403C336.185 330.102 335.302 330.306 334.252 331.45C332.733 333.119 331.095 334.682 329.509 336.282C328.033 337.768 326.674 337.521 325.269 336.109C323.451 334.289 323.193 333.326 324.611 331.678C326.083 329.974 327.665 328.356 329.302 326.804C330.535 325.642 330.759 324.689 329.239 323.631C328.74 323.284 328.315 322.807 327.935 322.328C327.102 321.277 326.371 321.266 325.44 322.267C323.621 324.216 321.665 326.04 319.856 328.002C317.018 331.086 315.404 329.597 313.362 326.724C312.948 326.142 313.35 324.413 313.961 323.759C318.023 319.413 322.244 315.212 326.413 310.97C327.78 309.584 329.135 309.806 330.431 311.07C334.209 314.768 337.987 318.459 341.758 322.168C343.613 323.985 345.461 325.808 347.309 327.631C348.077 328.39 349.379 329.277 349.759 330.327C350.031 331.086 350.138 331.755 350.102 332.372L350.101 332.379Z" fill="#7E9D00"/>
<path d="M360.321 308.204C359.011 307.273 357.773 306.244 356.381 305.516C356.033 305.332 354.988 305.979 354.596 306.493C353.29 308.208 352.175 310.059 350.922 311.81C349.4 313.944 348.422 314.113 346.349 312.74C344.219 311.324 343.929 310.302 345.225 308.195C346.356 306.364 347.541 304.557 348.805 302.819C349.726 301.551 349.728 300.651 348.227 299.9C347.594 299.582 346.999 299.138 346.462 298.675C345.381 297.754 344.728 298.136 344.038 299.21C342.425 301.708 340.788 304.196 339.029 306.592C337.636 308.497 336.708 308.535 334.612 307.147C332.3 305.62 331.863 304.651 333.147 302.655C336.31 297.741 339.577 292.893 342.909 288.089C344.227 286.19 345.285 286.164 347.636 287.733C353.95 291.943 360.243 296.188 366.543 300.421C366.799 300.596 367.048 300.769 367.304 300.944C371.784 304.003 371.845 304.456 368.829 308.826C366.206 312.62 363.687 316.493 361.057 320.286C359.122 323.087 356.242 323.093 354.528 320.109C354.036 319.253 354.405 317.539 354.952 316.525C356.174 314.287 357.766 312.247 359.194 310.117C359.536 309.61 359.82 309.061 360.327 308.211L360.321 308.204Z" fill="#7E9D00"/>
<path d="M360.544 238.253C361.109 234.944 362.428 231.654 363.552 228.71C364.281 226.808 365.454 226.304 367.411 227.349C371.011 229.277 371.136 229.644 369.494 233.492C368.701 235.35 368.137 237.343 367.759 239.33C367.528 240.536 367.885 242.068 369.443 242.118C370.353 242.146 371.56 241.483 372.155 240.748C373.161 239.488 373.794 237.924 374.582 236.493C377.984 230.293 381.361 228.598 387.232 230.144C392.113 231.429 395.157 236.072 394.852 242.077C394.637 246.247 393.121 250.07 391.171 253.714C390.387 255.17 389.37 255.286 387.866 254.441C384.116 252.33 384.018 252.196 385.706 248.316C386.318 246.911 386.835 245.453 387.248 243.979C387.699 242.372 387.487 240.824 385.811 240.018C384.046 239.172 382.859 240.184 382.02 241.635C380.948 243.496 380.046 245.456 378.915 247.281C376.158 251.738 372.761 253.326 368.393 252.321C365.196 251.581 362.539 249.404 361.244 246.382C360.126 243.775 360.078 241.007 360.544 238.253Z" fill="#7E9D00"/>
<path d="M160.945 357.83C161.127 360.866 158.176 365.906 157.515 367.492C155.199 373.068 152.925 378.66 150.567 384.213C149.449 386.852 149.036 387.01 146.399 385.941C141.001 383.747 135.606 381.528 130.242 379.244C128.164 378.361 128.042 377.529 129.22 374.728C130.349 372.046 130.808 371.732 132.997 372.564C135.669 373.581 138.337 374.647 140.929 375.854C142.448 376.557 143.252 376.519 143.936 374.756C145.86 369.762 146.221 371.058 141.733 368.948C140.162 368.209 138.497 367.665 136.919 366.937C135.626 366.336 135.096 365.358 135.821 363.934C136.238 363.112 136.589 362.259 136.929 361.405C137.514 359.948 138.51 359.668 139.891 360.259C142.146 361.228 144.442 362.108 146.666 363.142C147.995 363.759 148.722 363.433 149.238 362.112C150.123 359.822 151.074 357.557 152.026 355.292C152.675 353.748 153.595 352.983 155.373 353.892C156.825 354.639 158.468 355.026 159.871 355.835C160.581 356.248 160.895 356.956 160.944 357.836L160.945 357.83Z" fill="#7E9D00"/>
<path d="M117.43 372.72C116.757 372.318 116.303 372.074 115.878 371.79C110.828 368.469 105.77 365.167 100.743 361.798C98.4735 360.282 98.4795 359.972 100.149 357.343C101.877 354.628 102.414 354.408 104.702 355.802C107.06 357.241 109.407 358.722 111.648 360.336C113.229 361.474 114.029 361.106 115.005 359.527C117.157 356.046 117.251 356.099 113.901 353.835C112.796 353.092 111.67 352.378 110.564 351.641C107.81 349.815 107.72 349.216 109.749 346.226C111.363 343.847 111.764 343.744 114.16 345.236C115.551 346.101 116.904 347.03 118.259 347.953C120.246 349.31 121.869 349.009 123.126 347.052C124.014 345.675 124.931 344.313 125.837 342.944C126.121 342.519 126.318 341.967 126.706 341.689C129.903 339.367 131.319 342.979 133.546 343.858C134.991 344.43 135.8 345.529 134.654 347.259C129.35 355.301 124.122 363.388 118.83 371.437C118.486 371.962 117.868 372.31 117.413 372.706L117.43 372.72Z" fill="#7E9D00"/>
<path d="M271.456 380.45C271.436 380.653 271.416 380.856 271.395 381.065C271 385.248 268.763 387.924 264.684 389.092C261.899 389.889 261.248 389.446 261.549 386.601C262.073 381.704 262.525 376.782 263.439 371.955C264.04 368.779 263.979 365.892 262.5 363.038C262.313 362.678 262.217 362.271 262.068 361.89C259.518 355.204 259.748 354.829 266.631 353.066C268.254 352.65 269.18 353.078 269.736 354.598C270.581 356.905 271.288 359.285 272.366 361.485C273.093 362.979 274.136 364.467 275.403 365.518C279.744 369.104 284.29 372.449 288.681 375.971C291.198 377.99 291.022 378.948 288.144 380.251C283.738 382.244 279.827 381.541 276.408 378.142C275.392 377.128 274.417 376.069 273.42 375.045C272.564 374.171 272.029 374.31 271.893 375.557C271.718 377.192 271.568 378.822 271.406 380.458C271.424 380.46 271.443 380.462 271.467 380.464L271.456 380.45Z" fill="#7E9D00"/>
<path d="M177.029 26.456C178.791 26.7738 178.707 27.9949 179.392 30.2176C179.876 31.7807 179.082 32.5277 177.737 32.9529C177.544 33.0145 177.328 33.0054 177.136 33.0671C175.411 33.6284 172.857 33.7225 172.202 34.8868C171.524 36.0862 172.665 38.3417 173.079 40.1152C174.304 45.3968 175.573 50.6703 176.792 55.9575C177.529 59.1601 177.245 59.7032 174.011 60.4003C167.638 61.7729 168.397 62.6927 166.787 56.1C165.456 50.634 164.189 45.1495 162.871 39.6786C162.154 36.7139 162.128 36.7238 159.247 37.3628C158.746 37.4744 158.25 37.5929 157.749 37.7045C154.193 38.5125 154.018 38.4019 153.238 34.8224C152.582 31.8079 152.705 31.5034 155.682 30.7746C159.727 29.7855 163.775 28.8277 167.829 27.8706C170.39 27.2681 172.953 26.4485 175.603 26.3827C176.182 26.3657 176.651 26.3936 177.029 26.4622L177.029 26.456Z" fill="#7E9D00"/>
<path d="M380.142 133.234C380.783 134.031 381.458 134.545 381.707 135.221C384.22 142.04 386.706 148.869 389.09 155.731C389.78 157.718 389.129 158.393 386.446 159.293C384.693 159.883 383.099 160.377 382.245 157.92C381.621 156.144 381.066 153.674 379.735 153.014C378.576 152.433 376.368 153.927 374.631 154.543C369.331 156.426 364.015 158.276 358.744 160.242C356.785 160.973 355.744 160.522 355.011 158.53C352.185 150.873 352.175 152.406 358.804 149.829C364.142 147.752 369.566 145.881 374.983 144.004C376.397 143.511 377.063 142.938 376.295 141.421C375.926 140.695 375.62 139.901 375.495 139.106C375.305 137.889 374.75 136.045 375.316 135.53C376.517 134.439 378.338 134.03 380.149 133.229L380.142 133.234Z" fill="#7E9D00"/>
<path d="M264.065 32.4644C262.512 37.4203 261.166 41.7262 259.808 46.0247C259.066 48.3727 258.3 50.712 257.534 53.0513C257.071 54.4645 257.3 55.2758 258.99 55.6982C261.769 56.3903 264.466 57.4157 267.211 58.272C268.896 58.7995 269.53 59.8437 268.958 61.5502C268.763 62.1332 268.521 62.699 268.326 63.2881C267.314 66.3482 266.901 66.6362 263.957 65.7229C258.769 64.1084 253.591 62.4454 248.43 60.7406C245.666 59.8265 245.34 59.3656 246.135 56.7933C248.819 48.0751 251.6 39.3852 254.369 30.6878C254.874 29.1049 255.831 28.281 257.636 28.9757C259.166 29.5623 260.826 29.8452 262.287 30.5616C263.098 30.9588 263.612 31.9661 264.064 32.4767L264.065 32.4644Z" fill="#7E9D00"/>
<path d="M66.0533 153.057C66.2281 154.608 65.5976 156.52 65.2443 157.64C64.3121 160.59 63.3743 163.533 62.436 166.482C61.9055 168.137 61.3743 169.798 60.8198 171.444C60.3089 172.964 59.2954 173.547 57.7265 173.037C48.776 170.124 39.8336 167.193 30.8665 164.321C29.2066 163.79 28.8085 162.8 29.3201 161.274C32.0373 153.161 30.8962 154.215 37.7712 156.345C42.9482 157.952 48.1314 159.56 53.2556 161.323C54.918 161.892 55.6282 161.677 56.0954 159.91C56.7949 157.241 57.8508 154.67 58.5989 152.012C59.1348 150.116 60.1993 149.52 62.0177 150.079C62.993 150.381 64.0702 150.531 64.9117 151.056C65.6302 151.506 65.9557 152.228 66.0472 153.056L66.0533 153.057Z" fill="#7E9D00"/>
<path d="M221.152 39.8052C221.81 35.2385 222.376 30.6626 222.951 26.0689C223.19 24.1554 223.919 23.253 225.922 23.6444C226.725 23.8049 227.553 23.8436 228.369 23.9371C233.043 24.4821 233.057 24.527 232.388 29.3286C231.567 35.2203 230.856 41.1292 229.967 47.0142C229.691 48.8558 230.136 49.6265 232.072 49.7505C234.73 49.9152 237.374 50.3455 240.025 50.6461C242.05 50.8721 242.949 51.8865 242.512 53.9729C242.346 54.7698 242.3 55.6035 242.238 56.4169C242.087 58.2523 241.055 58.8887 239.31 58.6533C233.517 57.873 227.71 57.1781 221.927 56.2995C219.06 55.8656 218.889 55.5258 219.279 52.5965C219.655 49.7527 220.055 46.9052 220.511 44.0694C220.739 42.6514 220.955 41.2261 221.158 39.8058L221.152 39.8052Z" fill="#7E9D00"/>
<path d="M294.01 44.3612C293.518 45.4424 293.235 46.1035 292.923 46.7431C289.239 54.4058 285.555 62.0684 281.848 69.7163C280.365 72.7792 279.94 72.9356 276.948 71.4463C271.284 68.6173 271.051 69.5876 274.104 63.216C277.51 56.1032 280.963 49.0137 284.44 41.9328C285.748 39.2685 286.027 39.2031 288.665 40.3903C289.971 40.9796 291.348 41.4889 292.516 42.2879C293.218 42.7737 293.587 43.7479 294.011 44.355L294.01 44.3612Z" fill="#7E9D00"/>
<path d="M105.492 55.2649C106.275 56.0009 106.955 56.4658 107.402 57.0938C112.679 64.56 117.917 72.0471 123.181 79.5305C124.367 81.213 124.145 82.5694 122.34 83.6258C121.806 83.9391 121.3 84.2862 120.794 84.6333C116.683 87.4725 116.666 87.4522 113.91 83.4653C109.239 76.7051 104.527 69.9781 99.8427 63.2228C98.0403 60.6284 98.1346 60.1162 100.76 58.303C102.258 57.2721 103.816 56.334 105.493 55.2587L105.492 55.2649Z" fill="#7E9D00"/>
<path d="M90.5079 92.7891C90.3805 93.4471 90.0601 94.1107 89.7637 94.6587C88.2225 97.5544 85.396 99.5835 83.2807 101.95C81.8426 103.558 80.7061 102.88 79.3721 101.754C77.9404 100.55 77.8685 99.525 79.1439 98.1801C81.4657 95.7345 83.6245 93.1175 86.0532 90.7819C86.9725 89.8984 89.1367 90.0388 90.0238 90.9155C90.5606 91.447 90.6371 92.1128 90.5079 92.7891Z" fill="#7E9D00"/>
<path d="M379.244 186.755C380.301 187.295 380.807 188.506 380.903 189.913C381.095 192.546 383.34 201.245 378.476 201.42C377.28 201.463 376.431 201.012 376.279 199.73C375.838 195.992 375.397 192.241 375.261 188.49C375.21 187.069 376.154 186.629 377.403 186.486C378.143 186.404 378.753 186.508 379.238 186.755L379.244 186.755Z" fill="#7E9D00"/>
<path d="M220.315 381.722C217.934 381.951 217.672 380.404 217.534 378.608C217.376 376.575 218.669 376.237 220.209 376.111C223.35 375.845 226.503 375.656 229.64 375.303C231.498 375.09 232.297 375.921 232.495 377.617C232.689 379.288 232.554 380.703 230.36 380.863C227.01 381.108 223.664 381.434 220.321 381.723L220.315 381.722Z" fill="#7E9D00"/>
</svg>
