<svg width="474" height="296" viewBox="0 0 474 296" fill="none" xmlns="http://www.w3.org/2000/svg">
<path d="M62.8717 0.00443872C131.484 2.95077 228.003 62.9115 283.921 102.689C288.34 105.196 291.75 110.286 297.117 110.267C305.726 110.237 314.745 109.743 322.342 114.411C329.758 118.527 331.833 127.518 329.906 135.315C329.738 136.832 330.267 138.125 331.248 139.24C335.574 143.336 340.278 147.039 344.714 151.02C350.097 155.601 355.014 160.76 360.871 164.753C366.425 168.425 376.016 170.104 381.676 166.055C384.09 164.167 384.656 159.912 382.101 157.828C379.673 155.649 376.33 155.002 373.223 154.399C370.387 153.784 367.562 154.334 364.714 154.418C358.038 154.218 358.812 145.657 358.808 140.895C358.988 139.119 360.003 137.2 362.04 137.281C365.732 137.331 369.432 137.239 373.112 136.937C374.71 136.795 376.217 136.265 377.343 135.018C378.817 133.523 379.284 131.527 379.1 129.459C378.966 125.691 374.815 123.724 371.44 124.154C365.964 124.395 360.946 127.084 355.472 127.135C353.228 127.105 351.617 125.674 350.793 123.714C349.836 121.427 348.876 119.14 347.934 116.846C347.227 115.313 346.99 113.338 348.565 112.254C359.345 107.051 372.631 104.513 384.374 107.548C390.301 109.036 395.681 112.416 399.092 117.55C400.911 120.137 402.749 123.101 402.469 126.39C401.89 133.026 397.473 138.844 391.933 142.25C398.74 144.681 404.537 149.65 405.68 157.18C406.348 161.383 406.453 166.044 404.202 169.81C400.754 175.687 405.054 173.328 408.083 171.392C416.21 167.356 424.23 163.109 431.911 158.263C466.689 136.841 485.112 108.69 434.024 92.9355C433.795 92.7163 433.984 92.2446 434.244 92.2097C437.209 92.2827 439.981 93.5391 442.788 94.3777C455.422 98.6471 471.698 105.162 473.953 120.032C476.833 165.554 346.15 206.658 308.993 216.1C265.259 227.816 220.605 236.129 175.578 240.837C175.055 240.892 174.534 240.978 174.009 241.019C172.279 241.154 172.452 241.183 173.272 242.608C176.055 247.438 180.065 250.754 185.402 252.419C188.499 253.286 191.703 253.669 194.872 254.174C199.129 255.453 192.385 256.191 191.214 256.398C189.608 256.688 187.998 256.976 186.401 257.316C183.119 258.016 180.312 259.644 177.787 261.811C170.615 267.481 170.439 276.919 169.646 285.273C169.473 286.843 169.264 288.41 169.026 289.972C168.933 290.589 168.733 291.193 168.546 291.79C168.512 291.895 168.3 292.001 168.168 292.003C168.04 292.003 167.822 291.898 167.794 291.797C166.861 288.98 166.931 285.975 166.477 283.066C165.711 271.73 163.462 262.187 151.737 257.822C150.189 257.279 148.581 256.973 146.965 256.711C145.339 256.288 138.921 256.023 140.411 254.544C143.425 253.613 146.649 253.513 149.71 252.729C161.489 250.316 165.916 238.307 166.441 227.549C166.968 224.428 166.654 221.024 167.894 218.073C169.353 217.241 169.551 225.354 169.759 226.469C169.954 228.353 170.182 230.235 170.403 232.115C170.45 232.525 170.636 232.697 171.017 232.676C171.648 232.644 172.282 232.614 172.91 232.549C184.431 231.318 195.947 229.981 207.403 228.235C259.907 220.541 311.895 208.5 361.926 190.689C363.873 189.893 368.462 187.55 367.724 185.659C366.929 182.414 362.698 179.313 360.322 176.969C352.41 169.358 344.35 161.894 336.039 154.716C271.309 99.1427 162.622 25.4255 78.5779 10.1872C44.1822 4.29926 24.2921 18.1367 42.6152 53.2116C42.8737 53.5674 45.3384 58.3276 43.1449 57.3476C41.1545 54.8031 40.122 51.6694 38.6391 48.8231C25.2326 22.6555 28.6203 -0.367228 62.8717 0.00443872Z" fill="#FAFAFA"/>
<path d="M89.4944 118.805C93.2675 118.925 94.2841 120.868 95.1865 124.246C96.5933 129.116 97.6924 134.057 98.6186 139.041C100.563 148.208 102.214 157.614 104.549 166.615C108.444 152.121 111.911 137.347 115.196 122.653C115.762 118.407 120.699 117.697 124.195 117.208C135.037 116.457 135.772 122.812 138.289 131.327C141.947 142.559 145.556 153.848 149.225 165.056C150.311 161.742 150.23 157.906 150.897 154.418C151.782 147.208 152.843 140.017 153.761 132.814C153.967 130.768 154.308 128.741 154.525 126.698C155.001 123.711 154.725 120.48 156.151 117.734C157.961 115.008 161.911 116.028 164.706 115.801C168.409 115.823 172.087 115.572 175.773 115.39C180.396 115.069 181.483 117.508 180.326 121.578C178.385 130.653 176.42 139.723 174.428 148.787C171.483 161.905 168.752 175.068 165.843 188.194C165.186 191.664 163.055 194.32 159.317 194.324C155.945 194.447 152.571 194.556 149.203 194.755C146.375 194.912 142.47 195.716 140.81 192.742C136.448 181.227 132.507 169.459 128.772 157.718C128.321 156.642 128.336 154.319 126.975 154.07C124.867 154.154 124.406 159.419 123.876 161.079C122.564 166.732 121.094 172.345 119.644 177.963C117.69 183.459 117.755 193.946 111.342 195.819C108.661 196.618 105.8 196.413 103.042 196.791C98.2317 197.391 91.6577 197.134 89.9908 191.596C84.1939 171.049 77.9784 150.573 71.4266 130.253C70.7462 127.848 68.8462 124.014 71.2315 122.123C76.6239 118.363 83.32 119.542 89.4928 118.806L89.4944 118.805Z" fill="#FAFAFA"/>
<path d="M194.083 121.382C193.995 116.778 193.651 114.422 199.257 114.416C206.794 114.07 214.313 113.831 221.842 113.458C226.86 113.406 231.834 112.99 236.845 112.826C240.628 112.537 244.718 112.248 248.057 114.41C249.765 115.347 249.629 117.529 249.982 119.203C250.266 122.197 250.786 129.216 246.883 129.994C244.721 130.522 242.469 130.263 240.271 130.503C236.268 130.652 232.263 130.785 228.262 130.952C224.639 131.424 218.757 129.835 218.018 134.874C217.488 137.817 216.5 145.193 221.277 144.615C223.404 144.208 225.523 143.809 227.691 143.782C231.004 143.598 234.335 143.722 237.648 143.443C241.955 143.396 246.043 142.31 245.879 148.227C245.989 151.017 246.314 153.803 246.093 156.603C246.144 159.294 244.369 159.926 241.997 160.131C234.679 160.531 227.353 160.511 220.048 161.125C218.479 161.151 219.356 164.615 219.314 165.698C219.585 167.534 219.406 169.381 219.552 171.218C219.755 174.305 223.426 174.351 225.756 174.086C229.948 173.719 234.14 173.246 238.331 172.928C243.568 172.529 251.221 172.576 251.478 179.528C251.487 182.582 253.057 188.346 249.675 189.953C248.142 190.541 246.522 190.795 244.885 190.833C238.72 190.975 232.56 191.272 226.4 191.577C221.133 191.77 215.859 191.851 210.602 192.233C208.6 192.299 206.599 192.363 204.597 192.434C202.139 192.52 198.745 193.141 197.55 190.352C196.047 187.214 197.045 183.649 196.436 180.354C196.298 177.412 196.415 174.44 196.087 171.503C195.915 169.191 196.236 166.827 195.785 164.55C195.777 160.369 195.433 156.227 195.349 152.046C195.462 150.715 195.189 149.431 195.129 148.107C195.097 146.257 195.181 144.394 194.999 142.559C194.784 137.639 194.491 132.777 194.399 127.858C194.383 127.07 194.474 126.276 194.207 125.502C194.115 124.154 194.212 122.748 194.179 121.387C194.147 121.387 194.115 121.387 194.085 121.387L194.083 121.382Z" fill="#FAFAFA"/>
<path d="M294.66 141.918C296.389 141.791 298.747 141.497 300.671 141.419C306.913 141.676 305.998 133.827 310.572 138.25C317.196 143.897 323.847 149.51 330.42 155.215C332.646 157.269 335.273 159.483 335.671 162.679C336.581 176.284 325.747 185.96 312.94 187.668C305.047 188.664 297.039 188.435 289.115 188.996C283.204 189.399 277.027 190.929 271.276 188.829C267.155 187.207 267.462 181.98 267.59 178.292C267.581 175.184 267.42 172.077 267.33 168.968C266.553 152.691 266.148 136.368 265.23 120.137C265.184 118.29 265.062 116.44 265.233 114.595C265.904 110.045 272.132 110.753 275.42 111.678C282.154 113.898 286.977 119.737 292.727 123.695C293.83 124.462 296.162 126.824 293.607 127.283C292.928 127.318 292.24 127.245 291.561 127.167C287.423 126.937 289.507 132.215 289.328 134.626C289.252 136.375 289.542 138.095 289.647 139.829C289.71 142.464 292.682 141.61 294.66 141.919V141.918ZM299.967 155.328C299.965 155.291 299.962 155.255 299.96 155.22C298.037 155.608 289.999 154.599 290.292 157.302C289.458 171.408 289.926 173.864 304.795 171.685C315.427 169.186 313.043 152.779 299.967 155.33V155.328Z" fill="#FAFAFA"/>
<path d="M110.871 235.991C125.371 235.799 139.722 235.127 154.161 234.163C156.681 233.982 159.191 233.669 161.715 233.539C162.6 233.502 162.612 233.534 162.439 234.353C162.108 237.263 160.416 239.407 158.308 241.237C157.106 242.316 155.609 242.624 154.061 242.74C116.563 244.423 22.1954 251.196 1.41239 214.399C-5.01093 197.137 11.8848 182.968 23.7259 173.093C25.3341 171.665 26.4158 173.062 24.7267 174.312C17.0552 180.867 8.86344 188.683 7.06174 199.053C4.01344 234.117 86.4223 236.05 110.874 235.991H110.871Z" fill="#FAFAFA"/>
<path d="M454.897 78.1848C454.366 80.0034 446.42 80.0749 444.349 80.7515C431.83 82.424 421.06 92.9752 419.604 105.625C419 110.216 418.546 114.824 418.013 119.427C417.655 120.825 417.345 131.349 415.528 129.631C413.953 125.537 414.224 121.001 413.571 116.713C412.947 111.762 412.602 106.754 411.482 101.878C409.011 92.2875 401.135 84.33 391.622 81.6839C388.923 80.9389 386.158 80.5307 383.4 80.0924C382.242 79.7223 375.887 79.6635 377.237 77.8385C381.043 76.2709 385.422 76.39 389.424 75.3766C400.837 73.1625 410.335 63.4499 412.072 51.9092C413.166 44.7808 413.602 37.5651 414.624 30.424C414.92 29.3979 414.889 27.0472 415.924 26.7407C417.485 27.2632 417.377 33.7388 417.802 35.4431C418.697 41.6947 418.889 48.0448 420.238 54.225C422.762 64.638 431.608 73.1895 442.092 75.3242C445.292 75.9834 448.517 76.4964 451.752 76.957C452.861 77.2239 454.145 77.1857 454.899 78.1848H454.897Z" fill="#FAFAFA"/>
<path d="M434.968 272.638C434.554 304.775 389.54 296.188 369.152 290.621C368.241 289.238 375.678 291.569 376.39 291.533C384.223 293.096 392.269 294.088 400.261 293.858C458.509 289.8 401.917 220.181 382.947 200.098C381.9 198.888 381.786 199.023 383.397 198.575C385.638 197.984 387.86 197.179 390.209 197.31C392.986 197.288 394.267 200.289 396.056 201.971C411.677 220.778 433.824 247.403 434.968 272.638Z" fill="#FAFAFA"/>
<path d="M58.1216 115.315C57.2794 114.943 57.3603 113.461 57.1605 112.651C56.1486 106.317 56.9337 99.1792 52.8561 93.8059C48.282 87.3145 42.4788 87.4924 35.6447 85.8183C34.3046 84.5238 43.2909 84.0695 44.2298 83.3897C56.9654 79.0885 55.8457 68.1672 57.3873 57.1649C57.4904 56.4121 58.0804 54.7428 58.6101 56.4089C59.476 61.2263 59.5791 66.1517 60.4895 70.9706C61.9201 78.3944 68.6146 83.5644 75.9546 84.2347C86.289 85.6991 77.1267 86.4711 73.1982 87.2859C67.3331 88.4739 62.5228 93.0817 60.7877 98.7742C59.6378 103.79 59.4729 109.003 58.6973 114.092C58.5831 114.511 58.5466 115.097 58.1232 115.317L58.1216 115.315Z" fill="#FAFAFA"/>
<path d="M393.322 25.6574C393.2 26.3309 392.534 26.3261 392.004 26.4166C386.989 26.8502 381.876 28.5672 379.372 33.2766C377.129 37.2887 377.58 42.1124 376.807 46.528C375.911 51.3136 375.329 45.332 375.21 43.9549C374.666 39.4155 374.677 34.4091 371.22 30.9545C368.133 27.2076 363.502 27.0964 359.19 26.0831C358.427 25.4462 359.902 25.2794 360.336 25.1555C369.992 24.3725 374.703 19.1723 374.98 9.54549C376.308 -4.62711 377.254 9.0674 377.829 13.5925C378.488 19.8315 383.825 24.2899 389.909 24.8299C391.035 25.1063 392.375 24.93 393.322 25.659V25.6574Z" fill="#FAFAFA"/>
<path d="M359.076 185.234C356.409 184.663 353.713 183.718 351.063 183.009C349.431 182.582 348.023 181.065 348.456 179.283C348.939 177.661 349.128 173.724 351.675 175.409C354.448 177.595 356.698 180.384 359.22 182.849C360.014 183.632 361.18 185.485 359.074 185.234H359.076Z" fill="#FAFAFA"/>
</svg>
