<svg width="64" height="72" viewBox="0 0 64 72" fill="none" xmlns="http://www.w3.org/2000/svg">
<rect y="4" width="64" height="64" rx="12" fill="#FAFAFA"/>
<path d="M37.0327 13.2691C37.5264 8.70343 38.2807 8.63246 38.7821 13.2691L39.4131 19.1041C39.9152 23.7475 40.1663 26.0692 40.8775 28.0467C42.5604 32.7262 46.1432 36.4771 50.7421 38.374C52.6855 39.1756 54.9943 39.5337 59.6117 40.25C61.6196 40.5615 61.299 41.3064 59.6117 41.5681C54.9943 42.2844 52.6855 42.6426 50.7421 43.4442C46.1432 45.341 42.5604 49.0919 40.8775 53.7715C40.1663 55.749 39.9152 58.0707 39.4131 62.7141L38.7821 68.5491C38.2807 73.1857 37.5264 73.1147 37.0327 68.5491L36.4017 62.7141C35.8996 58.0707 35.6485 55.749 34.9374 53.7715C33.2545 49.0919 29.6716 45.341 25.0727 43.4442C23.1293 42.6426 20.8206 42.2844 16.2031 41.5682C14.1952 41.2567 14.5158 40.5118 16.2031 40.25C20.8206 39.5338 23.1293 39.1756 25.0727 38.374C29.6716 36.4771 33.2545 32.7262 34.9374 28.0467C35.6485 26.0692 35.8996 23.7475 36.4017 19.1041L37.0327 13.2691Z" fill="#666DA5"/>
<path d="M12.8172 1.51356C13.0354 -0.488925 13.3687 -0.520053 13.5902 1.51356L13.869 4.07278C14.0909 6.10936 14.2018 7.12765 14.5161 7.99498C15.2597 10.0474 16.8428 11.6925 18.8748 12.5245C19.7336 12.8761 20.7537 13.0331 22.794 13.3473C23.6812 13.4839 23.5395 13.8106 22.794 13.9254C20.7537 14.2396 19.7336 14.3967 18.8748 14.7482C16.8428 15.5802 15.2597 17.2253 14.5161 19.2778C14.2018 20.1451 14.0909 21.1634 13.869 23.1999L13.5902 25.7592C13.3687 27.7928 13.0354 27.7616 12.8172 25.7592L12.5384 23.1999C12.3165 21.1634 12.2056 20.1451 11.8914 19.2778C11.1477 17.2253 9.56463 15.5802 7.53256 14.7482C6.67383 14.3967 5.6537 14.2396 3.61342 13.9254C2.72624 13.7888 2.86787 13.4621 3.61342 13.3473C5.6537 13.0331 6.67383 12.8761 7.53256 12.5245C9.56463 11.6925 11.1477 10.0474 11.8914 7.99498C12.2056 7.12765 12.3165 6.10936 12.5384 4.07278L12.8172 1.51356Z" fill="#666DA5"/>
</svg>
