<svg width="64" height="64" viewBox="0 0 64 64" fill="none" xmlns="http://www.w3.org/2000/svg">
<rect width="64" height="64" rx="12" fill="#666DA5"/>
<path d="M26.926 26.926C27.0216 26.8304 27.1923 26.7121 27.737 26.6389C28.3178 26.5608 29.1061 26.5581 30.3256 26.5581H33.6744C34.8939 26.5581 35.6822 26.5608 36.263 26.6389C36.8077 26.7121 36.9784 26.8304 37.074 26.926C37.1696 27.0216 37.2879 27.1923 37.3611 27.737C37.4392 28.3178 37.4419 29.1061 37.4419 30.3256V33.6744C37.4419 34.8939 37.4392 35.6822 37.3611 36.263C37.2879 36.8077 37.1696 36.9784 37.074 37.074C36.9784 37.1696 36.8077 37.2879 36.263 37.3611C35.6822 37.4392 34.8939 37.4419 33.6744 37.4419H30.3256C29.1061 37.4419 28.3178 37.4392 27.737 37.3611C27.1923 37.2879 27.0216 37.1696 26.926 37.074C26.8304 36.9784 26.7121 36.8077 26.6389 36.263C26.5608 35.6822 26.5581 34.8939 26.5581 33.6744V30.3256C26.5581 29.1061 26.5608 28.3178 26.6389 27.737C26.7121 27.1923 26.8304 27.0216 26.926 26.926Z" fill="#FAFAFA"/>
<path fill-rule="evenodd" clip-rule="evenodd" d="M32 14C32.6936 14 33.2558 14.5622 33.2558 15.2558V20.2799C34.1751 20.2818 35.0091 20.2881 35.7678 20.3089L35.7674 20.2791V15.2558C35.7674 14.5622 36.3297 14 37.0233 14C37.7168 14 38.2791 14.5622 38.2791 15.2558V20.2791C38.2791 20.3448 38.274 20.4093 38.2643 20.4723C39.9491 20.6792 41.1167 21.1078 42.0044 21.9956C42.8922 22.8833 43.3208 24.0509 43.5277 25.7357C43.5907 25.726 43.6552 25.7209 43.7209 25.7209H48.7442C49.4378 25.7209 50 26.2832 50 26.9767C50 27.6703 49.4378 28.2326 48.7442 28.2326H43.7209L43.6911 28.2322C43.7118 28.9909 43.719 29.8249 43.7209 30.7442H48.7442C49.4378 30.7442 50 31.3064 50 32C50 32.6936 49.4378 33.2558 48.7442 33.2558L43.7201 33.2558C43.7182 34.1751 43.7118 35.0091 43.6911 35.7678L43.7209 35.7674H48.7442C49.4378 35.7674 50 36.3297 50 37.0233C50 37.7168 49.4378 38.2791 48.7442 38.2791H43.7209C43.6552 38.2791 43.5907 38.274 43.5277 38.2643C43.3208 39.9491 42.8922 41.1167 42.0044 42.0044C41.1167 42.8922 39.9491 43.3208 38.2643 43.5277C38.274 43.5907 38.2791 43.6552 38.2791 43.7209V48.7442C38.2791 49.4378 37.7168 50 37.0233 50C36.3297 50 35.7674 49.4378 35.7674 48.7442V43.7209L35.7678 43.6911C35.0091 43.7118 34.1751 43.719 33.2558 43.7209V48.7442C33.2558 49.4378 32.6936 50 32 50C31.3064 50 30.7442 49.4378 30.7442 48.7442L30.7442 43.7201C29.8249 43.7182 28.9909 43.7118 28.2322 43.6911L28.2326 43.7209V48.7442C28.2326 49.4378 27.6703 50 26.9767 50C26.2832 50 25.7209 49.4378 25.7209 48.7442V43.7209C25.7209 43.6552 25.726 43.5907 25.7357 43.5277C24.0509 43.3208 22.8833 42.8922 21.9956 42.0044C21.1078 41.1167 20.6792 39.9491 20.4723 38.2643C20.4093 38.274 20.3448 38.2791 20.2791 38.2791H15.2558C14.5622 38.2791 14 37.7168 14 37.0233C14 36.3297 14.5622 35.7674 15.2558 35.7674H20.2791L20.3089 35.7678C20.2881 35.0091 20.281 34.1751 20.2791 33.2558H15.2558C14.5622 33.2558 14 32.6936 14 32C14 31.3064 14.5622 30.7442 15.2558 30.7442L20.2799 30.7442C20.2818 29.8249 20.2881 28.9909 20.3089 28.2322L20.2791 28.2326H15.2558C14.5622 28.2326 14 27.6703 14 26.9767C14 26.2832 14.5622 25.7209 15.2558 25.7209H20.2791C20.3448 25.7209 20.4093 25.726 20.4723 25.7357C20.6792 24.0509 21.1078 22.8833 21.9956 21.9956C22.8833 21.1078 24.0509 20.6792 25.7357 20.4723C25.726 20.4093 25.7209 20.3448 25.7209 20.2791V15.2558C25.7209 14.5622 26.2832 14 26.9767 14C27.6703 14 28.2326 14.5622 28.2326 15.2558V20.2791L28.2322 20.3089C28.9909 20.2881 29.8249 20.281 30.7442 20.2791V15.2558C30.7442 14.5622 31.3064 14 32 14ZM30.2429 24.0465C29.1297 24.0465 28.1704 24.0464 27.4023 24.1497C26.5791 24.2603 25.79 24.5099 25.15 25.15C24.5099 25.79 24.2603 26.5791 24.1497 27.4023C24.0464 28.1704 24.0465 29.1296 24.0465 30.2429V33.7571C24.0465 34.8704 24.0464 35.8296 24.1497 36.5977C24.2603 37.4209 24.5099 38.21 25.15 38.85C25.79 39.4901 26.5791 39.7397 27.4023 39.8503C28.1704 39.9536 29.1296 39.9536 30.2429 39.9535H33.7571C34.8703 39.9536 35.8296 39.9536 36.5977 39.8503C37.4209 39.7397 38.21 39.4901 38.85 38.85C39.4901 38.21 39.7397 37.4209 39.8503 36.5977C39.9536 35.8296 39.9536 34.8704 39.9535 33.7571V30.2429C39.9536 29.1297 39.9536 28.1704 39.8503 27.4023C39.7397 26.5791 39.4901 25.79 38.85 25.15C38.21 24.5099 37.4209 24.2603 36.5977 24.1497C35.8296 24.0464 34.8704 24.0465 33.7571 24.0465H30.2429Z" fill="#FAFAFA"/>
</svg>
