<svg width="64" height="64" viewBox="0 0 64 64" fill="none" xmlns="http://www.w3.org/2000/svg">
<rect width="64" height="64" rx="12" fill="#5B93A9"/>
<path d="M23.4654 20.3565C24.1462 19.9016 24.861 19.5071 25.6016 19.1754C27.7024 18.2346 28.7528 17.7642 30.1502 18.6695C31.5476 19.5748 31.5476 21.0599 31.5476 24.0301V26.3271C31.5476 29.2146 31.5476 30.6583 32.4447 31.5553C33.3417 32.4524 34.7854 32.4524 37.6729 32.4524H39.9699C42.9401 32.4524 44.4252 32.4524 45.3305 33.8498C46.2358 35.2472 45.7654 36.2976 44.8246 38.3984C44.4929 39.139 44.0984 39.8538 43.6435 40.5346C42.045 42.9269 39.773 44.7915 37.1148 45.8926C34.4565 46.9937 31.5315 47.2818 28.7095 46.7205C25.8876 46.1591 23.2954 44.7736 21.2609 42.7391C19.2264 40.7046 17.8409 38.1124 17.2795 35.2905C16.7182 32.4685 17.0063 29.5435 18.1074 26.8852C19.2085 24.227 21.0731 21.955 23.4654 20.3565Z" fill="#FAFAFA"/>
<path d="M46.7783 24.1357C45.5351 20.9801 43.0199 18.4649 39.8643 17.2217C37.5037 16.2918 35.3759 18.4302 35.3759 20.9674V27.0927C35.3759 27.9385 36.0615 28.6241 36.9073 28.6241H43.0326C45.5698 28.6241 47.7082 26.4963 46.7783 24.1357Z" fill="#FAFAFA"/>
</svg>
