<svg width="64" height="64" viewBox="0 0 64 64" fill="none" xmlns="http://www.w3.org/2000/svg">
<rect width="64" height="64" rx="12" fill="#D36700"/>
<path d="M32.8787 46.1213C33.7574 47 35.1716 47 38 47H41C43.8284 47 45.2426 47 46.1213 46.1213C47 45.2426 47 43.8284 47 41V23C47 20.1716 47 18.7574 46.1213 17.8787C45.2426 17 43.8284 17 41 17H38C35.1716 17 33.7574 17 32.8787 17.8787C32.1251 18.6322 32.0178 19.7796 32.0025 21.875L35 21.875C35.6213 21.875 36.125 22.3787 36.125 23C36.125 23.6213 35.6213 24.125 35 24.125H32V26.375H36.5C37.1213 26.375 37.625 26.8787 37.625 27.5C37.625 28.1213 37.1213 28.625 36.5 28.625H32V30.875H35C35.6213 30.875 36.125 31.3787 36.125 32C36.125 32.6213 35.6213 33.125 35 33.125H32V35.375L36.5 35.375C37.1213 35.375 37.625 35.8787 37.625 36.5C37.625 37.1213 37.1213 37.625 36.5 37.625L32 37.625V39.875H35C35.6213 39.875 36.125 40.3787 36.125 41C36.125 41.6213 35.6213 42.125 35 42.125H32.0025C32.0178 44.2204 32.1251 45.3678 32.8787 46.1213Z" fill="#FAFAFA"/>
<path d="M26 36.7902L26 24.8212C24.8465 25.2967 23.325 25.7046 21.5003 25.7046C19.6753 25.7046 18.1536 25.2966 17 24.821L17 36.7902C17 37.7242 17 38.1913 17.0567 38.6496C17.1235 39.1902 17.249 39.7219 17.431 40.2353C17.5853 40.6706 17.7941 41.0883 18.2119 41.9237L20.4146 46.3292C20.6202 46.7403 21.0403 47 21.5 47C21.9596 47 22.3798 46.7403 22.5854 46.3292L24.7881 41.9237C25.2059 41.0883 25.4147 40.6706 25.569 40.2353C25.751 39.7219 25.8765 39.1902 25.9433 38.6496C26 38.1913 26 37.7242 26 36.7902Z" fill="#FAFAFA"/>
<path d="M26 21.5C26 19.0147 23.9853 17 21.5 17C19.0147 17 17 19.0147 17 21.5L17 22.9355C17.0395 22.9554 17.0798 22.9753 17.1208 22.9952C18.1422 23.4904 19.6327 23.9881 21.5003 23.9881C23.3679 23.9881 24.8583 23.4904 25.8797 22.9952C25.9206 22.9754 25.9607 22.9556 26 22.9358V21.5Z" fill="#FAFAFA"/>
</svg>
