<svg width="64" height="64" viewBox="0 0 64 64" fill="none" xmlns="http://www.w3.org/2000/svg">
<rect width="64" height="64" rx="12" fill="#EDB833"/>
<path fill-rule="evenodd" clip-rule="evenodd" d="M40.25 18.125C40.8713 18.125 41.375 18.6287 41.375 19.25V22.625H44.75C45.3713 22.625 45.875 23.1287 45.875 23.75C45.875 24.3713 45.3713 24.875 44.75 24.875H41.375V28.25C41.375 28.8713 40.8713 29.375 40.25 29.375C39.6287 29.375 39.125 28.8713 39.125 28.25V24.875H35.75C35.1287 24.875 34.625 24.3713 34.625 23.75C34.625 23.1287 35.1287 22.625 35.75 22.625H39.125V19.25C39.125 18.6287 39.6287 18.125 40.25 18.125Z" fill="#FAFAFA"/>
<path d="M17 23.75C17 20.568 17 18.977 17.9885 17.9885C18.977 17 20.568 17 23.75 17C26.932 17 28.523 17 29.5115 17.9885C30.5 18.977 30.5 20.568 30.5 23.75C30.5 26.932 30.5 28.523 29.5115 29.5115C28.523 30.5 26.932 30.5 23.75 30.5C20.568 30.5 18.977 30.5 17.9885 29.5115C17 28.523 17 26.932 17 23.75Z" fill="#FAFAFA"/>
<path d="M33.5 40.25C33.5 37.068 33.5 35.477 34.4885 34.4885C35.477 33.5 37.068 33.5 40.25 33.5C43.432 33.5 45.023 33.5 46.0115 34.4885C47 35.477 47 37.068 47 40.25C47 43.432 47 45.023 46.0115 46.0115C45.023 47 43.432 47 40.25 47C37.068 47 35.477 47 34.4885 46.0115C33.5 45.023 33.5 43.432 33.5 40.25Z" fill="#FAFAFA"/>
<path d="M17 40.25C17 37.068 17 35.477 17.9885 34.4885C18.977 33.5 20.568 33.5 23.75 33.5C26.932 33.5 28.523 33.5 29.5115 34.4885C30.5 35.477 30.5 37.068 30.5 40.25C30.5 43.432 30.5 45.023 29.5115 46.0115C28.523 47 26.932 47 23.75 47C20.568 47 18.977 47 17.9885 46.0115C17 45.023 17 43.432 17 40.25Z" fill="#FAFAFA"/>
</svg>
