<svg width="64" height="64" viewBox="0 0 64 64" fill="none" xmlns="http://www.w3.org/2000/svg">
<rect width="63.5981" height="64.0019" rx="12" fill="#7E9D00"/>
<path d="M15.7988 36C15.7988 33.7529 15.7988 32.6293 16.3381 31.8222C16.5716 31.4728 16.8716 31.1728 17.221 30.9393C18.0281 30.4 19.1517 30.4 21.3988 30.4C23.646 30.4 24.7695 30.4 25.5767 30.9393C25.9261 31.1728 26.2261 31.4728 26.4595 31.8222C26.9988 32.6293 26.9988 33.7529 26.9988 36V42.4C26.9988 44.6471 26.9988 45.7707 26.4595 46.5778C26.2261 46.9272 25.9261 47.2272 25.5767 47.4607C24.7695 48 23.646 48 21.3988 48C19.1517 48 18.0281 48 17.221 47.4607C16.8716 47.2272 16.5716 46.9272 16.3381 46.5778C15.7988 45.7707 15.7988 44.6471 15.7988 42.4V36Z" fill="#FAFAFA"/>
<path fill-rule="evenodd" clip-rule="evenodd" d="M47.7988 28.8V35.2C47.7988 41.234 47.7988 44.251 45.9243 46.1255C44.0498 48 41.0328 48 34.9988 48C32.2803 48 30.1742 48 28.509 47.8286C29.0447 46.9889 29.2351 46.0971 29.3191 45.2718C29.399 44.4862 29.3989 43.5383 29.3988 42.5056L29.3988 42.4V36L29.3988 35.8944C29.3989 34.8617 29.399 33.9138 29.3191 33.1282C29.2324 32.2757 29.0321 31.3524 28.4551 30.4888C28.0465 29.8773 27.5215 29.3523 26.91 28.9438C26.0464 28.3667 25.1231 28.1665 24.2706 28.0797C23.6648 28.0181 22.9624 28.0041 22.199 28.0009C22.2027 22.4959 22.2835 19.6644 24.0733 17.8745C25.9479 16 28.9649 16 34.9988 16C41.0328 16 44.0498 16 45.9243 17.8745C47.7988 19.749 47.7988 22.766 47.7988 28.8ZM30.5988 43.2C30.5988 42.5373 31.1361 42 31.7988 42H39.7988C40.4616 42 40.9988 42.5373 40.9988 43.2C40.9988 43.8627 40.4616 44.4 39.7988 44.4H31.7988C31.1361 44.4 30.5988 43.8627 30.5988 43.2Z" fill="#FAFAFA"/>
</svg>
