<svg width="170" height="63" viewBox="0 0 170 63" fill="none" xmlns="http://www.w3.org/2000/svg">
<path fill-rule="evenodd" clip-rule="evenodd" d="M3.90222 20.8739C3.71282 20.9236 3.51527 20.9768 3.31065 21.033C1.76493 21.458 0.992066 21.6705 0.494417 21.3008C-0.0032328 20.9312 0.0107335 20.1799 0.0386661 18.6772C0.179909 11.0791 0.837092 6.71363 3.89488 3.76097C7.78976 0 14.0585 0 26.5959 0H38.6472C51.1846 0 57.4533 0 61.3482 3.76097C65.2431 7.52195 65.2431 13.5751 65.2431 25.6815V37.3185C65.2431 49.4249 65.2431 55.478 61.3482 59.239C57.9664 62.5046 52.7948 62.9347 43.284 62.9914C41.5658 63.0016 40.7068 63.0068 40.3335 62.4708C39.9602 61.9349 40.2927 61.1599 40.9577 59.61C42.7787 55.3657 44.4869 51.0322 45.1622 49.2538C45.7008 47.8353 46.2437 46.1541 46.8475 44.2843C47.9216 40.9584 49.1885 37.0353 50.9669 32.9314C53.7451 26.52 53.3508 21.4432 52.6871 21.1565C52.0234 20.8697 49.8084 22.0345 46.4297 24.2879C43.0511 26.5413 36.9877 29.4913 35.5815 27.9026C34.1753 26.3138 36.1206 24.1307 37.0902 23.2235C37.7692 22.5883 38.4884 22.3605 39.2216 22.1283C39.5355 22.0289 39.8519 21.9287 40.1689 21.7953C40.7414 21.5545 41.1772 21.1224 41.6555 20.6481C42.0607 20.2464 42.4964 19.8143 43.0717 19.4425C43.5688 19.1213 43.8675 19.0142 44.3526 18.8402C45.0918 18.5753 46.2636 18.1551 49.2291 16.5861C54.141 13.9873 55.0408 11.5117 54.756 11.4152C54.5822 11.3563 52.8285 12.3706 51.0934 13.3741C49.9834 14.0161 48.8809 14.6538 48.2047 15.0031C46.4715 15.8987 43.3169 16.1272 43.3259 15.5741C43.3332 15.1296 44.4488 14.8211 45.4843 14.5347C45.7369 14.4648 45.9848 14.3963 46.2107 14.3274C47.3622 13.9761 53.2287 11.3919 54.6831 10.0311C56.1376 8.67035 55.286 8.19639 54.4224 8.45981C54.1646 8.53845 53.0512 8.89986 51.5726 9.37979L51.5676 9.38141C48.0933 10.5092 42.6081 12.2897 41.4651 12.5955C40.6422 12.8156 40.1644 12.7591 39.5975 12.6921C39.0414 12.6264 38.3995 12.5505 37.262 12.7158C35.9243 12.9102 35.3615 13.2414 34.8028 13.5704C34.4021 13.8063 34.0035 14.0409 33.3227 14.223C32.964 14.319 32.0441 14.5269 30.8281 14.8018C26.5181 15.776 18.4894 17.5907 18.5533 18.2389C18.6071 18.7854 23.2161 18.6038 26.5815 18.4712C28.3329 18.4022 29.7476 18.3465 30.0079 18.4135C30.7685 18.6095 30.7535 19.5313 30.1657 20.4443C29.5779 21.3573 29.7447 22.835 30.4902 23.9527C31.2358 25.0704 31.3086 26.4545 30.9208 26.8173C30.5329 27.1802 29.6723 27.2593 28.1571 26.4986C27.4823 26.1598 25.9629 25.351 24.1422 24.3818L24.1418 24.3815C21.8744 23.1745 19.1397 21.7187 16.9868 20.6121C13.1048 18.6168 8.2173 19.7411 3.90222 20.8739ZM35.8146 60.3593C35.731 60.5594 35.6476 60.7954 35.5658 61.0596C35.2638 62.0354 35.1127 62.5233 34.7813 62.7616C34.4499 63 33.9754 63 33.0264 63H26.5959C14.0585 63 7.78976 63 3.89488 59.239C0 55.478 0 49.4249 0 37.3185V27.9272C0 27.3443 0 27.0529 0.104057 26.8226C0.220091 26.5659 0.423064 26.358 0.681671 26.231C0.913587 26.1171 1.21604 26.0999 1.82094 26.0655L1.82237 26.0654C2.14806 26.0469 2.43483 26.0305 2.67202 26.0178C5.34779 25.8742 8.46314 28.0422 10.53 30.1021C11.5847 31.1532 13.3362 32.167 15.1112 33.1943C16.8146 34.1802 18.5396 35.1786 19.6912 36.2345C22.0429 38.3909 16.6678 45.9613 15.886 47.0557C15.1701 48.058 14.7972 47.6736 14.3786 47.2422C14.3402 47.2026 14.3013 47.1625 14.2618 47.1231C13.792 46.655 13.6041 46.4677 13.1193 46.9213C12.6345 47.3749 13.1922 48.3054 14.0377 49.148C14.8832 49.9907 16.3196 49.736 16.9983 49.101C17.2497 48.8658 17.7565 48.2174 18.3143 47.5037C19.2631 46.2899 20.3595 44.8873 20.598 45.007C20.8021 45.1095 20.6307 46.1427 20.4737 47.0892C20.3393 47.8996 20.2154 48.6465 20.3468 48.691C20.4601 48.7295 21.1393 48.3533 21.9399 47.91C23.1517 47.239 24.6416 46.4139 24.8679 46.6395C25.2437 47.014 23.2743 50.6718 22.0137 51.8511C20.8972 52.8958 20.4795 52.4319 20.1375 52.0521C20.0934 52.0031 20.0506 51.9555 20.0077 51.9128C19.6319 51.5382 18.9712 51.0672 18.4864 51.5208C18.0016 51.9744 17.6077 52.7059 19.2988 54.3912C20.9899 56.0766 24.1957 52.7142 25.2683 51.3476C25.486 51.0702 25.7724 50.4443 26.1307 49.6612C27.5375 46.5867 30.0527 41.0897 33.8738 44.7485C38.6682 49.3392 36.8083 57.9773 35.8146 60.3593ZM36.516 14.952C36.5623 14.9774 36.5418 15.1585 36.5008 15.5205C36.4544 15.9302 36.5903 16.356 36.9105 16.6751C37.4812 17.2439 38.4214 17.2583 39.0105 16.7071C39.5995 16.156 39.6144 15.2481 39.0437 14.6793C38.9268 14.5629 38.8684 14.5046 38.864 14.481C38.8575 14.4453 38.8692 14.4201 38.9011 14.401C38.9222 14.3883 38.996 14.3911 39.1438 14.3966C40.1171 14.4333 41.1085 14.6041 41.2346 14.9893C41.4165 15.5453 39.7711 16.9031 37.759 17.3334C37.0999 17.4744 34.9927 17.1995 34.8106 16.6433C34.7587 16.3701 35.3798 15.7207 36.0942 15.2002C36.3445 15.0178 36.4697 14.9266 36.516 14.952Z" fill="#2A2B3B"/>
<path d="M166.012 41.5094C165.311 41.5094 164.656 41.3276 164.047 40.9638C163.446 40.5921 162.964 40.0979 162.602 39.4811C162.247 38.8564 162.07 38.1842 162.07 37.4646C162.07 36.745 162.247 36.0728 162.602 35.4481C162.964 34.8234 163.446 34.3291 164.047 33.9654C164.656 33.5937 165.311 33.4079 166.012 33.4079C166.714 33.4079 167.369 33.5937 167.978 33.9654C168.586 34.3291 169.068 34.8234 169.423 35.4481C169.785 36.0728 169.966 36.745 169.966 37.4646C169.966 38.1842 169.785 38.8564 169.423 39.4811C169.068 40.0979 168.586 40.5921 167.978 40.9638C167.369 41.3276 166.714 41.5094 166.012 41.5094ZM166.012 40.8215C166.598 40.8215 167.141 40.6712 167.642 40.3707C168.143 40.0623 168.544 39.6511 168.845 39.1371C169.145 38.6152 169.296 38.0577 169.296 37.4646C169.296 36.8636 169.145 36.3061 168.845 35.7921C168.544 35.2781 168.143 34.8669 167.642 34.5585C167.141 34.2501 166.598 34.0959 166.012 34.0959C165.434 34.0959 164.891 34.2501 164.382 34.5585C163.881 34.8669 163.48 35.2781 163.18 35.7921C162.887 36.3061 162.74 36.8636 162.74 37.4646C162.74 38.0577 162.887 38.6152 163.18 39.1371C163.48 39.6511 163.881 40.0623 164.382 40.3707C164.891 40.6712 165.434 40.8215 166.012 40.8215ZM166.151 39.6234C165.75 39.6234 165.38 39.5404 165.041 39.3743C164.71 39.2083 164.444 38.971 164.243 38.6626C164.043 38.3463 163.943 37.9707 163.943 37.5358C163.943 36.832 164.135 36.2784 164.521 35.8751C164.914 35.4718 165.453 35.2702 166.139 35.2702C166.401 35.2702 166.671 35.3097 166.949 35.3888C167.059 35.4163 167.166 35.4474 167.269 35.482C167.434 35.5373 167.517 35.5649 167.579 35.6405C167.609 35.6774 167.637 35.7331 167.648 35.7799C167.672 35.8758 167.642 35.9719 167.582 36.164L-nan -nanL167.582 36.164C167.506 36.4075 167.468 36.5292 167.398 36.5926C167.356 36.6313 167.323 36.6496 167.268 36.6658C167.179 36.6924 167.035 36.6536 166.747 36.576C166.54 36.5199 166.337 36.4919 166.139 36.4919C165.931 36.4919 165.746 36.5631 165.584 36.7054C165.43 36.8478 165.353 37.0573 165.353 37.3341C165.353 37.69 165.423 37.9588 165.561 38.1407C165.708 38.3147 165.904 38.4017 166.151 38.4017C166.359 38.4017 166.571 38.374 166.787 38.3186C167.034 38.2461 167.158 38.2098 167.235 38.2238C167.314 38.2382 167.362 38.2643 167.418 38.3234C167.473 38.3808 167.507 38.4871 167.575 38.6995L167.59 38.7447C167.651 38.9352 167.682 39.0304 167.659 39.127C167.648 39.1738 167.62 39.2305 167.589 39.2675C167.527 39.3437 167.446 39.3711 167.284 39.4257C167.184 39.4594 167.08 39.4897 166.972 39.5167C166.687 39.5878 166.413 39.6234 166.151 39.6234Z" fill="#2A2B3B"/>
<path d="M88.664 5.82989C92.9363 5.82989 96.0909 6.83103 98.1277 8.83332C100.189 10.8356 101.22 13.8632 101.22 17.916C101.22 21.9447 100.189 24.9602 98.1277 26.9625C96.0661 28.9647 92.9115 29.9659 88.664 29.9659H80.0386C78.9409 29.9659 78.392 29.9659 78.051 29.6347C77.71 29.3035 77.71 28.7704 77.71 27.7043V8.09151C77.71 7.02537 77.71 6.4923 78.051 6.16109C78.392 5.82989 78.9409 5.82989 80.0386 5.82989H88.664ZM87.6953 24.538C89.6079 24.538 91.061 23.9832 92.0546 22.8735C93.0481 21.7638 93.5449 20.1113 93.5449 17.916C93.5449 13.4772 91.595 11.2578 87.6953 11.2578H85.199V24.538H87.6953Z" fill="#2A2B3B"/>
<path d="M110.669 5.82989C111.766 5.82989 112.315 5.82989 112.656 6.16109C112.997 6.4923 112.997 7.02537 112.997 8.0915V27.7043C112.997 28.7704 112.997 29.3035 112.656 29.6347C112.315 29.9659 111.766 29.9659 110.669 29.9659H107.837C106.739 29.9659 106.19 29.9659 105.849 29.6347C105.508 29.3035 105.508 28.7704 105.508 27.7043V8.09151C105.508 7.02537 105.508 6.4923 105.849 6.16109C106.19 5.82989 106.739 5.82989 107.837 5.82989H110.669Z" fill="#2A2B3B"/>
<path d="M140.594 27.7043C140.594 28.7704 140.594 29.3035 140.253 29.6347C139.912 29.9659 139.363 29.9659 138.265 29.9659H137.068C136.238 29.9659 135.823 29.9659 135.462 29.7965C135.102 29.6271 134.844 29.311 134.329 28.6786L125.206 17.4818V27.7043C125.206 28.7704 125.206 29.3035 124.865 29.6347C124.524 29.9659 123.975 29.9659 122.878 29.9659H120.754C119.656 29.9659 119.107 29.9659 118.766 29.6347C118.425 29.3035 118.425 28.7704 118.425 27.7043V8.09151C118.425 7.02537 118.425 6.4923 118.766 6.16109C119.107 5.82989 119.656 5.82989 120.754 5.82989H122.72C123.574 5.82989 124.002 5.82989 124.37 6.00805C124.738 6.18622 124.995 6.5176 125.509 7.18036L133.813 17.8798V8.0915C133.813 7.02537 133.813 6.4923 134.154 6.16109C134.495 5.82989 135.044 5.82989 136.142 5.82989H138.265C139.363 5.82989 139.912 5.82989 140.253 6.16109C140.594 6.4923 140.594 7.02537 140.594 8.0915V27.7043Z" fill="#2A2B3B"/>
<path d="M157.444 30.5449C153.519 30.5449 150.452 29.4713 148.241 27.3243C146.03 25.1773 144.925 22.0412 144.925 17.916C144.925 13.839 146.005 10.715 148.166 8.54383C150.352 6.37267 153.445 5.2871 157.444 5.2871C161.368 5.2871 164.436 6.36061 166.647 8.50764C168.882 10.6306 170 13.7546 170 17.8798C170 21.9567 168.907 25.0929 166.721 27.2881C164.535 29.4593 161.443 30.5449 157.444 30.5449ZM157.444 24.7189C159.034 24.7189 160.238 24.1882 161.058 23.1268C161.878 22.0412 162.287 20.2922 162.287 17.8798C162.287 15.4433 161.89 13.7064 161.095 12.669C160.3 11.6076 159.083 11.0768 157.444 11.0768C155.854 11.0768 154.649 11.6196 153.83 12.7052C153.035 13.7667 152.637 15.5156 152.637 17.9522C152.637 20.3404 153.035 22.0653 153.83 23.1268C154.649 24.1882 155.854 24.7189 157.444 24.7189Z" fill="#2A2B3B"/>
<path d="M104.257 55.4351C104.257 56.5087 104.257 57.0455 103.916 57.379C103.576 57.7125 103.028 57.7125 101.933 57.7125H99.1071C98.0117 57.7125 97.464 57.7125 97.1237 57.379C96.7834 57.0455 96.7834 56.5087 96.7834 55.4351V43.137L93.492 47.2065C92.2248 48.7732 91.5912 49.5565 90.7452 49.5537C89.8992 49.551 89.2709 48.7635 88.0145 47.1885L84.8114 43.1735V55.4351C84.8114 56.5087 84.8114 57.0455 84.4711 57.379C84.1308 57.7125 83.583 57.7125 82.4876 57.7125H80.0337C78.9383 57.7125 78.3906 57.7125 78.0503 57.379C77.71 57.0455 77.71 56.5087 77.71 55.4351V35.6853C77.71 34.6117 77.71 34.0749 78.0503 33.7414C78.3906 33.4079 78.9383 33.4079 80.0337 33.4079H83.4261C84.3232 33.4079 84.7718 33.4079 85.1524 33.6039C85.5331 33.7999 85.7876 34.162 86.2965 34.886L91.0205 41.6066L95.8905 34.8525C96.401 34.1445 96.6562 33.7905 97.0332 33.5992C97.4101 33.4079 97.8524 33.4079 98.7371 33.4079H101.933C103.028 33.4079 103.576 33.4079 103.916 33.7414C104.257 34.0749 104.257 34.6117 104.257 35.6853V55.4351Z" fill="#2A2B3B"/>
<path d="M115.41 53.4856L114.88 55.2573C114.527 56.4395 114.35 57.0307 113.885 57.3716C113.421 57.7125 112.792 57.7125 111.535 57.7125H110.164C108.675 57.7125 107.93 57.7125 107.583 57.2336C107.236 56.7547 107.48 56.0655 107.97 54.6869L114.979 34.9371C115.241 34.1985 115.372 33.8292 115.674 33.6185C115.977 33.4079 116.376 33.4079 117.174 33.4079H123.147C123.97 33.4079 124.381 33.4079 124.688 33.6289C124.995 33.8499 125.118 34.2347 125.364 35.0043L131.679 54.7542C132.111 56.107 132.327 56.7834 131.979 57.248C131.631 57.7125 130.908 57.7125 129.461 57.7125H127.926C126.679 57.7125 126.055 57.7125 125.592 57.3756C125.13 57.0388 124.95 56.4536 124.589 55.2832L124.036 53.4856H115.41ZM119.686 39.4932L116.897 48.8579H122.66L119.686 39.4932Z" fill="#2A2B3B"/>
<path d="M140.78 33.4079C141.875 33.4079 142.423 33.4079 142.763 33.7414C143.103 34.0749 143.103 34.6117 143.103 35.6853V55.4351C143.103 56.5087 143.103 57.0455 142.763 57.379C142.423 57.7125 141.875 57.7125 140.78 57.7125H137.954C136.859 57.7125 136.311 57.7125 135.97 57.379C135.63 57.0455 135.63 56.5087 135.63 55.4351V35.6853C135.63 34.6117 135.63 34.0749 135.97 33.7414C136.311 33.4079 136.859 33.4079 137.954 33.4079H140.78Z" fill="#2A2B3B"/>
<path d="M152.588 33.4079C153.683 33.4079 154.231 33.4079 154.571 33.7414C154.911 34.0749 154.911 34.6117 154.911 35.6853V51.6637H163.994C165.089 51.6637 165.637 51.6637 165.977 51.9972C166.318 52.3307 166.318 52.8675 166.318 53.9411V55.4351C166.318 56.5087 166.318 57.0455 165.977 57.379C165.637 57.7125 165.089 57.7125 163.994 57.7125H149.762C148.667 57.7125 148.119 57.7125 147.779 57.379C147.438 57.0455 147.438 56.5087 147.438 55.4351V35.6853C147.438 34.6117 147.438 34.0749 147.779 33.7414C148.119 33.4079 148.667 33.4079 149.762 33.4079H152.588Z" fill="#2A2B3B"/>
</svg>
