<svg width="40" height="40" viewBox="0 0 40 40" fill="none" xmlns="http://www.w3.org/2000/svg">
<g opacity="0.5">
<path fill-rule="evenodd" clip-rule="evenodd" d="M9.84745 7C8.82711 7 8 7.80206 8 8.79084V30.2092C8 31.1983 8.82711 32 9.84745 32H31.1525C32.1729 32 33 31.1983 33 30.2092V8.79084C33 7.80206 32.1729 7 31.1525 7H9.84745ZM15.5785 27.9273V16.6384H11.8025V27.9273H15.5785ZM13.6905 15.0971C15.0073 15.0971 15.8268 14.2303 15.8268 13.147C15.8023 12.0392 15.0073 11.1964 13.7155 11.1964C12.4238 11.1964 11.5793 12.0392 11.5793 13.147C11.5793 14.2303 12.3987 15.0971 13.6659 15.0971H13.6905ZM17.668 27.9273H21.444V21.6231C21.444 21.2858 21.4685 20.9487 21.5683 20.7075C21.8412 20.0334 22.4625 19.3352 23.5057 19.3352C24.872 19.3352 25.4186 20.3705 25.4186 21.8881V27.9273H29.1943V21.4545C29.1943 17.987 27.3314 16.3735 24.8471 16.3735C22.844 16.3735 21.9459 17.4675 21.4441 18.2367V16.6384H17.6681C17.7177 17.6977 17.668 27.9273 17.668 27.9273ZM21.4441 18.2367V18.2756H21.4189C21.4272 18.2628 21.4356 18.2498 21.4441 18.2367Z" fill="#FAFAFA"/>
</g>
</svg>
