<svg width="64" height="64" viewBox="0 0 64 64" fill="none" xmlns="http://www.w3.org/2000/svg">
<rect width="64" height="64" rx="12" fill="#7E9D00"/>
<path fill-rule="evenodd" clip-rule="evenodd" d="M19.1967 19.1967C17 21.3934 17 24.9289 17 32C17 39.0711 17 42.6066 19.1967 44.8033C21.3934 47 24.9289 47 32 47C39.0711 47 42.6066 47 44.8033 44.8033C47 42.6066 47 39.0711 47 32C47 24.9289 47 21.3934 44.8033 19.1967C42.6066 17 39.0711 17 32 17C24.9289 17 21.3934 17 19.1967 19.1967ZM39.5 32.375C40.1213 32.375 40.625 32.8787 40.625 33.5V41C40.625 41.6213 40.1213 42.125 39.5 42.125C38.8787 42.125 38.375 41.6213 38.375 41V33.5C38.375 32.8787 38.8787 32.375 39.5 32.375ZM33.125 23C33.125 22.3787 32.6213 21.875 32 21.875C31.3787 21.875 30.875 22.3787 30.875 23V41C30.875 41.6213 31.3787 42.125 32 42.125C32.6213 42.125 33.125 41.6213 33.125 41V23ZM24.5 26.375C25.1213 26.375 25.625 26.8787 25.625 27.5V41C25.625 41.6213 25.1213 42.125 24.5 42.125C23.8787 42.125 23.375 41.6213 23.375 41V27.5C23.375 26.8787 23.8787 26.375 24.5 26.375Z" fill="#FAFAFA"/>
</svg>
