<svg width="24" height="24" viewBox="0 0 24 24" fill="none" xmlns="http://www.w3.org/2000/svg">
<path d="M6.22209 4.60251C6.66665 4.30546 7.13344 4.04782 7.6171 3.83122C8.98898 3.21685 9.67491 2.90966 10.5875 3.50087C11.5 4.09207 11.5 5.06187 11.5 7.00147V8.50147C11.5 10.3871 11.5 11.3299 12.0858 11.9157C12.6716 12.5015 13.6144 12.5015 15.5 12.5015H17C18.9396 12.5015 19.9094 12.5015 20.5006 13.414C21.0918 14.3266 20.7846 15.0125 20.1702 16.3844C19.9536 16.868 19.696 17.3348 19.399 17.7794C18.3551 19.3417 16.8714 20.5593 15.1355 21.2783C13.3996 21.9974 11.4895 22.1855 9.64665 21.8189C7.80383 21.4524 6.11109 20.5476 4.78249 19.219C3.45389 17.8904 2.5491 16.1976 2.18254 14.3548C1.81598 12.512 2.00412 10.6019 2.72315 8.86598C3.44218 7.13008 4.65982 5.64638 6.22209 4.60251Z" fill="#FAFAFA"/>
<path d="M21.446 7.06998C20.6342 5.00929 18.9917 3.36677 16.931 2.55496C15.3895 1.94767 14 3.34414 14 5.00099V9.00099C14 9.55328 14.4477 10.001 15 10.001H19C20.6569 10.001 22.0533 8.61153 21.446 7.06998Z" fill="#FAFAFA"/>
</svg>
