<svg width="24" height="24" viewBox="0 0 24 24" fill="none" xmlns="http://www.w3.org/2000/svg">
<path fill-rule="evenodd" clip-rule="evenodd" d="M16.9997 20.6619C12.2168 23.4233 6.10089 21.7846 3.33946 17.0017C0.578039 12.2187 2.21679 6.10284 6.99972 3.34142C8.94932 2.21581 11.1204 1.8213 13.1955 2.07283C16.2112 2.43837 19.0242 4.16835 20.66 7.00167C22.2958 9.83499 22.3875 13.1361 21.1962 15.9305C20.3765 17.8534 18.9493 19.5363 16.9997 20.6619ZM14.25 6.50195C14.6642 6.50195 15 6.16617 15 5.75195C15 5.33774 14.6642 5.00195 14.25 5.00195C13.8358 5.00195 13.5 5.33774 13.5 5.75195C13.5 6.16617 13.8358 6.50195 14.25 6.50195ZM14.25 11.002C14.9404 11.002 15.5 10.4423 15.5 9.75195C15.5 9.0616 14.9404 8.50195 14.25 8.50195C13.5596 8.50195 13 9.0616 13 9.75195C13 10.4423 13.5596 11.002 14.25 11.002ZM14.25 15.502C14.9404 15.502 15.5 14.9423 15.5 14.252C15.5 13.5616 14.9404 13.002 14.25 13.002C13.5596 13.002 13 13.5616 13 14.252C13 14.9423 13.5596 15.502 14.25 15.502ZM11 14.252C11 14.9423 10.4404 15.502 9.75 15.502C9.05964 15.502 8.5 14.9423 8.5 14.252C8.5 13.5616 9.05964 13.002 9.75 13.002C10.4404 13.002 11 13.5616 11 14.252ZM9.75 11.002C10.4404 11.002 11 10.4423 11 9.75195C11 9.0616 10.4404 8.50195 9.75 8.50195C9.05964 8.50195 8.5 9.0616 8.5 9.75195C8.5 10.4423 9.05964 11.002 9.75 11.002ZM15 18.252C15 18.6662 14.6642 19.002 14.25 19.002C13.8358 19.002 13.5 18.6662 13.5 18.252C13.5 17.8377 13.8358 17.502 14.25 17.502C14.6642 17.502 15 17.8377 15 18.252ZM9.75 19.002C10.1642 19.002 10.5 18.6662 10.5 18.252C10.5 17.8377 10.1642 17.502 9.75 17.502C9.33579 17.502 9 17.8377 9 18.252C9 18.6662 9.33579 19.002 9.75 19.002ZM9.75 6.50195C10.1642 6.50195 10.5 6.16617 10.5 5.75195C10.5 5.33774 10.1642 5.00195 9.75 5.00195C9.33579 5.00195 9 5.33774 9 5.75195C9 6.16617 9.33579 6.50195 9.75 6.50195ZM18.25 9.00195C18.6642 9.00195 19 9.33774 19 9.75195C19 10.1662 18.6642 10.502 18.25 10.502C17.8358 10.502 17.5 10.1662 17.5 9.75195C17.5 9.33774 17.8358 9.00195 18.25 9.00195ZM6.5 9.75195C6.5 9.33774 6.16421 9.00195 5.75 9.00195C5.33579 9.00195 5 9.33774 5 9.75195C5 10.1662 5.33579 10.502 5.75 10.502C6.16421 10.502 6.5 10.1662 6.5 9.75195ZM18.25 13.502C18.6642 13.502 19 13.8377 19 14.252C19 14.6662 18.6642 15.002 18.25 15.002C17.8358 15.002 17.5 14.6662 17.5 14.252C17.5 13.8377 17.8358 13.502 18.25 13.502ZM6.5 14.252C6.5 13.8377 6.16421 13.502 5.75 13.502C5.33579 13.502 5 13.8377 5 14.252C5 14.6662 5.33579 15.002 5.75 15.002C6.16421 15.002 6.5 14.6662 6.5 14.252Z" fill="#FAFAFA"/>
</svg>
