<svg width="43" height="29" viewBox="0 0 43 29" fill="none" xmlns="http://www.w3.org/2000/svg">
<path d="M1.60386 28.9999H40.8034C41.2314 28.9999 41.6418 28.8299 41.9445 28.5273C42.2471 28.2247 42.4171 27.8143 42.4171 27.3863V1.88754C42.4122 1.59452 42.3276 1.30836 42.1724 1.05978C42.0172 0.811197 41.7972 0.609579 41.536 0.476565C41.2749 0.343551 40.9825 0.284164 40.6902 0.304779C40.3978 0.325393 40.1166 0.425231 39.8767 0.593575L0.285156 28.3168C0.433852 28.5283 0.631353 28.7008 0.860913 28.8197C1.09047 28.9387 1.34532 29.0005 1.60386 28.9999Z" fill="#2A2B3B"/>
<path d="M18.8462 11.9957L2.54037 0.593553C2.30035 0.425125 2.01897 0.325279 1.72647 0.304744C1.43397 0.284209 1.14141 0.343761 0.880215 0.477001C0.619017 0.610241 0.399052 0.812133 0.243971 1.06098C0.0888892 1.30984 0.00454486 1.59624 0 1.88942V27.4338L18.8462 11.9957Z" fill="#2A2B3B"/>
</svg>
