<svg width="20" height="20" viewBox="0 0 20 20" fill="none" xmlns="http://www.w3.org/2000/svg">
<path d="M0 10C0 5.28595 0 2.92893 1.46447 1.46447C2.92893 0 5.28595 0 10 0C14.714 0 17.0711 0 18.5355 1.46447C20 2.92893 20 5.28595 20 10C20 14.714 20 17.0711 18.5355 18.5355C17.0711 20 14.714 20 10 20C5.28595 20 2.92893 20 1.46447 18.5355C0 17.0711 0 14.714 0 10Z" fill="#FAFAFA"/>
<path fill-rule="evenodd" clip-rule="evenodd" d="M10 5.25C10.4142 5.25 10.75 5.58579 10.75 6V9.68934L13.0303 11.9697C13.3232 12.2626 13.3232 12.7374 13.0303 13.0303C12.7374 13.3232 12.2626 13.3232 11.9697 13.0303L9.46967 10.5303C9.32902 10.3897 9.25 10.1989 9.25 10V6C9.25 5.58579 9.58579 5.25 10 5.25Z" fill="#D36700"/>
</svg>
